<?xml version="1.0" standalone="no"?>
<!DOCTYPE svg PUBLIC "-//W3C//DTD SVG 20010904//EN"
 "http://www.w3.org/TR/2001/REC-SVG-20010904/DTD/svg10.dtd">
<svg version="1.0" xmlns="http://www.w3.org/2000/svg"
 width="1448.000000pt" height="1448.000000pt" viewBox="0 0 1448.000000 1448.000000"
 preserveAspectRatio="xMidYMid meet">
<metadata>
Created by potrace 1.11, written by Peter Selinger 2001-2013
</metadata>
<g transform="translate(0.000000,1448.000000) scale(0.100000,-0.100000)"
fill="#000000" stroke="none">
<path d="M7008 10479 c-8 -4 -25 -10 -39 -12 -13 -2 -31 -6 -39 -9 -40 -14
-156 -47 -185 -54 -5 -1 -125 -36 -265 -79 -140 -42 -262 -78 -270 -80 -8 -2
-42 -13 -75 -24 -33 -11 -134 -43 -225 -71 -91 -28 -172 -54 -180 -57 -8 -3
-19 -7 -25 -8 -5 -1 -32 -10 -60 -20 -27 -9 -57 -18 -65 -20 -8 -2 -168 -56
-355 -120 -187 -63 -347 -117 -355 -120 -8 -2 -42 -14 -75 -26 -33 -12 -139
-50 -235 -84 -208 -75 -603 -222 -645 -240 -16 -7 -84 -34 -150 -60 -66 -26
-131 -52 -145 -58 -14 -5 -30 -11 -35 -12 -6 -2 -31 -11 -55 -22 -25 -11 -61
-26 -80 -33 -19 -7 -53 -21 -75 -31 -22 -9 -69 -29 -105 -44 -36 -15 -81 -34
-100 -42 -19 -8 -44 -19 -55 -24 -11 -4 -55 -24 -98 -44 -43 -19 -81 -35 -84
-35 -3 0 -27 -11 -53 -24 -27 -13 -50 -22 -53 -20 -2 2 -10 -2 -17 -11 -7 -8
-18 -15 -26 -15 -7 0 -70 -27 -141 -61 -70 -34 -153 -72 -183 -85 -30 -14 -64
-30 -75 -36 -29 -17 -146 -75 -175 -87 -25 -11 -138 -70 -321 -168 -52 -28
-150 -83 -217 -122 -67 -39 -126 -71 -131 -71 -5 0 -11 -3 -13 -7 -4 -11 -167
-113 -179 -113 -5 0 -9 -4 -9 -10 0 -5 -5 -10 -11 -10 -16 0 -346 -230 -419
-292 -9 -7 -38 -31 -65 -53 -76 -60 -120 -101 -235 -215 -123 -122 -176 -184
-252 -296 -47 -68 -138 -239 -138 -259 0 -3 -18 -33 -40 -65 -78 -114 -150
-281 -167 -385 -10 -58 -10 -196 -1 -240 11 -56 75 -195 89 -195 5 0 9 -6 9
-14 0 -8 3 -16 8 -18 4 -1 19 -18 34 -35 136 -165 456 -343 833 -463 108 -34
471 -129 520 -135 17 -2 40 -6 51 -9 12 -2 37 -7 55 -10 19 -3 45 -8 59 -11
29 -6 131 -23 175 -29 17 -2 30 -5 30 -6 0 -1 20 -3 45 -5 25 -2 59 -6 75 -9
17 -3 56 -8 88 -11 32 -4 67 -8 78 -10 10 -2 61 -7 111 -11 51 -3 109 -8 128
-10 222 -22 974 -21 1445 1 50 2 158 7 240 10 83 3 186 7 230 10 44 3 123 7
175 9 149 8 300 17 360 22 30 2 91 6 135 9 76 4 110 7 285 21 41 3 95 7 120 9
25 2 81 7 125 11 44 4 98 8 120 9 22 2 40 4 40 5 0 0 25 3 55 5 162 12 203 16
209 19 3 2 47 7 97 10 50 4 106 9 125 11 19 3 61 7 94 10 33 3 71 7 85 10 14
2 57 7 95 10 39 3 81 7 95 10 14 2 54 7 90 11 36 3 72 7 80 9 13 2 81 10 180
20 14 2 43 5 65 9 39 5 300 39 400 51 62 7 103 13 135 19 14 2 48 7 75 11 28
3 97 13 155 21 58 8 116 17 130 19 80 11 128 18 203 30 15 3 39 7 55 9 15 3
45 7 67 11 22 3 55 7 73 10 18 2 45 6 60 9 15 3 43 8 62 10 19 3 44 7 55 10
11 2 40 7 65 10 55 8 100 15 120 21 8 2 38 7 65 11 28 3 59 8 70 11 11 2 34 6
50 8 30 4 68 10 115 20 14 3 50 9 80 15 30 5 65 11 76 14 12 2 39 7 60 10 22
4 62 11 89 16 28 5 64 12 80 15 17 3 39 7 50 9 33 6 238 45 270 51 38 6 73 13
105 20 14 4 36 8 50 11 30 5 66 13 100 20 14 2 36 7 50 9 14 2 93 18 175 35
83 17 159 33 170 36 42 8 61 13 110 24 28 6 61 13 75 15 32 5 395 86 515 115
50 12 99 23 110 26 11 2 108 25 215 50 107 25 200 47 205 48 6 1 19 5 30 9 11
3 31 8 45 11 32 5 470 116 490 123 8 3 22 7 31 9 8 2 42 11 75 19 32 9 66 18
74 20 8 1 35 8 60 15 25 7 52 14 60 15 31 7 346 95 377 105 18 6 40 13 50 14
25 5 103 28 370 107 234 69 267 77 277 60 16 -25 151 -87 237 -107 36 -9 188
-9 234 -1 144 27 271 105 368 227 41 53 91 149 103 200 4 19 10 42 12 50 3 8
6 61 7 117 2 89 -1 113 -25 187 -16 47 -38 99 -49 115 -12 16 -21 32 -21 35 0
24 -125 143 -193 184 -353 214 -812 20 -906 -383 -21 -90 -20 -188 4 -293 5
-27 3 -30 -22 -35 -15 -3 -35 -7 -43 -9 -14 -4 -117 -27 -150 -33 -8 -2 -15
-4 -15 -5 0 -1 -9 -3 -20 -5 -31 -5 -73 -14 -160 -35 -44 -11 -91 -21 -105
-24 -14 -2 -68 -14 -120 -26 -84 -19 -129 -28 -220 -46 -14 -3 -63 -14 -110
-24 -47 -10 -96 -21 -110 -23 -14 -3 -36 -8 -50 -11 -14 -3 -36 -8 -50 -10
-14 -3 -70 -14 -125 -26 -55 -11 -113 -23 -130 -26 -16 -3 -57 -11 -90 -19
-33 -7 -78 -16 -100 -19 -22 -4 -47 -8 -55 -11 -8 -2 -33 -6 -55 -10 -22 -3
-56 -10 -75 -15 -19 -4 -53 -11 -75 -14 -22 -2 -47 -7 -55 -10 -8 -3 -31 -7
-50 -10 -19 -3 -44 -7 -55 -10 -54 -11 -194 -36 -225 -40 -19 -3 -82 -14 -140
-25 -58 -11 -123 -22 -145 -25 -23 -4 -52 -9 -65 -12 -14 -3 -41 -7 -60 -10
-19 -2 -46 -6 -60 -9 -47 -10 -65 -13 -115 -19 -27 -4 -57 -9 -65 -11 -8 -2
-35 -7 -60 -9 -51 -7 -107 -15 -300 -46 -74 -12 -151 -24 -170 -26 -19 -2 -51
-7 -70 -9 -19 -3 -53 -8 -75 -10 -22 -3 -51 -7 -65 -10 -14 -3 -50 -7 -80 -10
-30 -3 -67 -8 -81 -10 -30 -5 -72 -11 -149 -19 -30 -4 -71 -9 -90 -11 -19 -3
-53 -7 -75 -10 -22 -2 -63 -7 -90 -10 -28 -3 -70 -7 -93 -10 -85 -9 -168 -17
-202 -20 -19 -2 -55 -6 -80 -9 -25 -3 -76 -8 -113 -11 -38 -3 -94 -8 -125 -11
-32 -3 -86 -7 -122 -9 -36 -2 -94 -6 -130 -9 -147 -12 -385 -25 -580 -31 -69
-3 -233 -8 -365 -12 -277 -9 -1285 -9 -1485 0 -74 3 -197 8 -273 11 -75 3
-161 8 -190 10 -68 6 -254 19 -289 20 -16 1 -28 3 -28 6 0 3 -21 5 -48 6 -57
0 -241 18 -312 29 -14 2 -52 7 -85 10 -33 4 -67 8 -75 10 -8 2 -37 7 -65 10
-58 7 -86 12 -135 20 -19 4 -44 8 -55 10 -43 6 -153 26 -215 40 -36 8 -78 16
-95 19 -16 3 -57 13 -90 22 -33 8 -67 17 -75 19 -103 22 -311 89 -440 142
-334 136 -551 313 -630 514 -42 104 -51 188 -35 319 14 120 35 167 125 275 45
54 263 270 335 331 66 56 213 171 261 204 12 8 78 54 145 101 68 48 135 93
149 100 14 8 27 17 30 20 3 3 31 21 62 40 32 19 117 69 188 112 72 43 152 90
178 103 26 14 92 50 147 80 151 83 551 281 720 358 83 37 157 72 165 77 8 5
22 12 30 15 38 15 186 78 260 112 19 9 40 17 45 18 9 2 56 22 172 75 24 10 47
19 51 19 5 0 22 6 38 14 16 8 108 46 204 84 96 38 184 73 195 77 11 4 25 9 30
11 6 1 56 21 112 43 94 37 218 82 496 182 59 21 107 35 107 32 0 -3 6 -1 13 4
11 9 113 47 129 48 3 0 9 3 13 7 9 9 -6 5 -95 -21 -41 -12 -100 -29 -130 -37
-30 -9 -91 -27 -135 -39 -44 -13 -120 -36 -170 -50 -49 -14 -101 -30 -115 -35
-23 -8 -58 -18 -287 -86 -49 -14 -97 -29 -108 -34 -11 -5 -49 -17 -85 -28 -94
-28 -392 -122 -410 -129 -8 -3 -19 -7 -25 -9 -5 -1 -125 -41 -265 -89 -140
-47 -262 -88 -270 -90 -8 -2 -72 -24 -142 -49 -71 -24 -128 -43 -128 -40 0 4
311 157 420 207 30 13 89 40 130 60 144 67 197 90 430 189 129 54 244 103 255
108 11 5 90 37 175 70 85 34 169 68 187 76 17 7 34 14 38 14 7 0 166 61 210
80 39 17 420 153 435 155 3 0 10 3 15 6 11 7 146 53 157 54 3 0 9 3 12 6 9 8
-20 7 -36 -2z m6248 -3281 c9 -21 21 -38 26 -38 4 0 8 -5 8 -12 0 -7 12 -24
27 -40 14 -15 25 -30 22 -32 -2 -2 -20 -7 -39 -10 -19 -3 -51 -10 -70 -16 -29
-9 -120 -30 -240 -56 -14 -3 -52 -12 -85 -21 -33 -9 -69 -17 -80 -18 -11 -1
-38 -7 -60 -13 -22 -6 -56 -14 -75 -17 -45 -9 -65 -13 -65 -15 0 -1 -9 -3 -20
-5 -25 -5 -87 -17 -100 -21 -35 -8 -204 -46 -222 -50 -30 -5 -62 -12 -93 -18
-14 -3 -47 -10 -75 -16 -27 -6 -59 -12 -70 -15 -36 -8 -251 -53 -281 -59 -16
-2 -40 -7 -54 -11 -14 -3 -38 -7 -55 -10 -16 -3 -50 -10 -75 -15 -50 -11 -46
-10 -225 -45 -71 -14 -142 -28 -156 -30 -24 -3 -157 -29 -205 -39 -12 -2 -39
-7 -60 -10 -22 -4 -46 -8 -54 -11 -8 -2 -33 -6 -55 -10 -22 -3 -47 -7 -55 -10
-8 -2 -31 -6 -50 -9 -35 -4 -193 -31 -240 -41 -14 -3 -41 -7 -60 -10 -19 -3
-44 -7 -55 -9 -11 -2 -40 -7 -65 -11 -25 -4 -54 -9 -65 -11 -19 -4 -43 -7
-123 -18 -18 -3 -45 -7 -60 -10 -15 -3 -45 -8 -67 -11 -22 -4 -53 -9 -70 -11
-16 -3 -41 -7 -55 -8 -41 -6 -112 -16 -170 -26 -59 -10 -97 -15 -175 -26 -27
-3 -57 -8 -66 -9 -9 -2 -38 -6 -65 -10 -27 -3 -91 -12 -142 -19 -51 -7 -95
-10 -97 -6 -2 3 8 7 23 8 15 1 50 6 77 12 93 18 120 23 140 25 11 1 29 4 40 8
11 3 38 8 60 12 22 3 96 17 165 30 69 14 139 27 155 29 17 2 37 6 45 10 8 3
31 8 50 10 19 3 58 10 85 16 28 6 59 12 70 14 135 28 184 38 205 42 14 2 36 7
50 10 32 7 69 15 95 18 11 2 27 6 35 9 8 3 29 8 45 11 17 3 39 7 50 9 11 3 54
12 95 21 205 44 588 130 780 176 117 28 303 73 350 84 61 15 238 60 351 90 75
20 145 37 155 39 10 1 24 6 31 10 6 4 23 8 37 9 14 1 26 5 26 8 0 3 8 6 18 6
23 1 70 11 80 18 5 3 20 7 33 9 14 3 92 24 175 47 82 23 156 43 164 45 32 8
268 75 325 93 33 10 65 18 72 18 6 1 19 -17 29 -38z"/>
<path d="M13196 8679 c-67 -53 -42 -160 42 -175 107 -20 166 124 73 179 -39
23 -83 21 -115 -4z m120 -20 c23 -19 28 -74 9 -103 -47 -71 -156 -34 -146 49
3 33 22 62 45 73 22 10 69 1 92 -19z"/>
<path d="M13219 8648 c-4 -71 -2 -102 8 -105 8 -3 11 3 8 16 -6 32 14 35 37 6
11 -14 23 -24 26 -21 3 3 -2 14 -12 25 -15 16 -15 19 -1 24 20 8 19 53 -1 61
-27 10 -64 7 -65 -6z m66 -29 c-9 -14 -55 -11 -52 4 1 6 6 15 11 19 13 9 48
-10 41 -23z"/>
<path d="M5740 8592 c-67 -15 -160 -67 -160 -89 0 -7 -4 -13 -9 -13 -15 0 -41
-78 -41 -125 0 -106 81 -186 220 -219 202 -49 257 -82 245 -144 -10 -54 -50
-80 -135 -86 -90 -7 -162 33 -182 101 l-12 43 -82 0 -82 0 4 -40 c11 -90 66
-164 151 -202 54 -24 59 -26 123 -33 134 -16 255 17 322 89 74 79 84 201 22
283 -28 37 -98 82 -140 89 -15 3 -31 7 -36 10 -4 3 -17 7 -28 10 -31 6 -52 12
-88 23 -18 5 -36 11 -40 12 -56 14 -81 30 -90 58 -22 62 36 111 127 107 31 -2
68 -9 82 -15 27 -14 59 -59 59 -85 0 -13 14 -16 86 -16 l86 0 -7 43 c-18 104
-86 171 -201 197 -75 17 -123 18 -194 2z"/>
<path d="M6526 8594 c-178 -46 -286 -190 -291 -389 -1 -38 4 -91 11 -118 7
-26 12 -50 12 -53 0 -2 11 -26 23 -52 33 -69 92 -126 168 -164 61 -31 73 -33
166 -33 73 0 114 5 150 19 l51 19 48 -44 c26 -24 51 -44 55 -44 9 0 81 62 81
70 0 3 -21 25 -46 49 l-46 44 28 42 c48 72 71 157 69 252 -3 85 -5 104 -26
167 -27 83 -99 165 -179 203 -25 13 -49 23 -55 24 -5 1 -23 5 -40 9 -50 11
-132 11 -179 -1z m187 -157 c37 -16 78 -63 98 -112 32 -82 27 -229 -10 -288
l-17 -27 -45 40 -44 40 -37 -41 c-20 -23 -34 -47 -32 -53 2 -6 18 -20 34 -31
37 -25 25 -38 -37 -38 -117 1 -193 76 -211 210 -9 67 5 158 32 216 45 92 162
128 269 84z"/>
<path d="M11829 8595 c-94 -20 -129 -39 -196 -105 -115 -115 -143 -353 -61
-513 43 -85 152 -170 238 -186 33 -6 179 -6 205 0 97 24 191 102 236 196 37
78 39 87 43 189 11 282 -202 474 -465 419z m190 -168 c40 -27 78 -79 87 -119
25 -113 22 -182 -10 -259 -68 -163 -304 -162 -372 1 -64 152 -7 354 111 396
53 19 141 10 184 -19z"/>
<path d="M12655 8602 c-2 -2 -17 -4 -34 -4 -18 -1 -34 -5 -37 -10 -3 -4 -9 -6
-13 -3 -15 9 -114 -60 -143 -100 -48 -68 -45 -181 7 -244 22 -26 79 -65 110
-74 11 -3 68 -19 127 -35 131 -36 169 -57 182 -100 19 -67 -47 -120 -146 -117
-90 3 -162 51 -171 115 -4 24 -7 25 -89 28 l-86 3 5 -38 c20 -157 159 -249
358 -239 44 3 89 7 100 10 31 7 79 26 85 34 3 4 17 15 32 25 46 29 80 99 84
172 1 36 -1 67 -7 70 -5 4 -9 13 -9 21 0 40 -116 125 -189 139 -9 1 -36 9 -61
16 -25 7 -50 13 -57 15 -35 7 -91 29 -115 46 -58 40 -22 119 60 133 92 15 166
-18 178 -80 l6 -35 84 0 c80 0 84 1 84 23 0 127 -121 222 -293 230 -27 1 -50
1 -52 -1z"/>
<path d="M3839 8580 c-1 -3 -2 -179 -2 -392 -1 -253 1 -388 8 -389 14 -1 117
-1 136 0 18 1 32 68 17 77 -4 3 -3 15 2 28 4 12 5 29 0 36 -4 7 -4 25 0 41 5
15 6 30 3 32 -7 7 -8 95 -1 102 3 3 2 22 -2 41 -4 18 -5 34 -1 34 3 0 4 32 1
71 -3 39 -2 73 2 75 7 5 10 -11 7 -32 0 -4 3 -10 8 -13 5 -3 19 -37 32 -76 12
-38 25 -77 29 -85 3 -8 6 -17 7 -20 1 -3 4 -12 8 -20 5 -13 51 -145 90 -257 6
-18 16 -33 22 -34 67 -4 118 -2 125 6 4 6 15 33 23 60 28 90 160 470 166 477
3 4 6 -117 6 -268 -1 -240 1 -274 15 -275 8 -1 44 -1 80 -2 l65 0 0 394 0 394
-118 0 c-138 1 -122 15 -173 -148 -38 -118 -81 -252 -90 -277 -3 -8 -5 -16 -5
-18 1 -1 -5 -18 -13 -37 -9 -20 -15 -38 -15 -41 0 -3 -2 -8 -4 -11 -3 -2 -19
37 -35 89 -47 143 -145 432 -149 438 -6 7 -243 7 -244 0z"/>
<path d="M4839 8575 c-5 -56 -2 -760 3 -768 5 -8 421 -14 574 -8 19 1 21 7 20
65 -1 36 -5 68 -9 73 -5 4 -99 8 -210 8 l-202 0 -3 96 -3 95 187 0 c134 -1
188 2 191 11 5 11 6 56 4 103 l-1 25 -190 -2 -190 -2 0 85 0 84 110 -1 c61 -1
113 0 115 3 3 3 24 2 48 -1 23 -3 65 -5 93 -3 l51 3 -1 72 -1 72 -292 0 c-194
0 -293 -3 -294 -10z"/>
<path d="M7126 8570 c-3 -8 -3 -139 -2 -290 3 -297 7 -324 61 -394 25 -32 103
-82 147 -93 13 -3 64 -7 113 -9 125 -5 212 24 273 91 69 77 75 113 76 435 l1
275 -87 0 -86 1 -1 -266 c-1 -146 -3 -272 -5 -280 -16 -75 -62 -111 -143 -112
-92 -2 -129 16 -161 77 -13 25 -16 76 -18 300 -1 149 -2 272 -3 275 0 3 -37 6
-81 6 -64 0 -81 -3 -84 -16z"/>
<path d="M7947 8576 c-2 -6 -3 -184 -3 -395 l1 -385 78 0 c43 -1 82 4 86 9 4
6 7 183 7 395 l-1 385 -82 1 c-50 0 -84 -4 -86 -10z"/>
<path d="M8209 8570 c-1 -25 -1 -94 0 -112 1 -19 33 -26 77 -17 18 3 38 3 45
-2 7 -4 18 -5 23 -1 14 8 80 2 86 -8 3 -4 5 -148 4 -319 -1 -218 2 -311 10
-312 6 0 45 -2 86 -2 l76 -2 0 320 0 320 74 2 c41 1 94 2 117 2 l41 1 4 59 c1
32 2 65 0 73 -2 11 -56 14 -322 13 -278 0 -320 -2 -321 -15z"/>
<path d="M9063 8550 c-8 -19 -48 -124 -89 -232 -41 -109 -79 -210 -85 -225 -6
-16 -16 -39 -22 -53 -5 -14 -13 -34 -17 -45 -4 -11 -22 -58 -39 -104 -17 -46
-30 -86 -27 -88 2 -3 41 -5 85 -6 l81 -2 19 50 c23 62 35 98 36 107 1 18 26
21 156 22 161 1 148 9 183 -107 10 -31 25 -61 34 -65 20 -9 132 -8 156 1 12 5
14 11 7 24 -5 10 -13 29 -19 43 -23 52 -263 695 -264 706 -1 6 -35 10 -90 10
l-90 -1 -15 -35z m132 -250 c2 -8 17 -53 34 -99 17 -46 28 -87 26 -91 -5 -7
-174 -10 -187 -3 -4 2 9 47 29 101 19 53 42 117 51 142 l15 44 14 -39 c8 -22
16 -47 18 -55z"/>
<path d="M9926 8580 c-3 -5 0 -771 3 -780 2 -7 146 -4 158 3 5 3 9 78 8 166 0
135 2 162 15 165 36 10 299 3 302 -8 2 -6 4 -82 3 -168 l0 -158 27 -1 c16 -1
44 -1 63 -1 19 0 46 0 59 1 l25 1 0 390 c0 298 -3 390 -12 391 -45 6 -144 4
-152 -2 -7 -5 -11 -61 -10 -148 1 -89 -3 -142 -10 -144 -5 -2 -77 -3 -159 -3
l-150 1 -2 145 c0 80 -2 147 -3 150 -1 7 -162 7 -165 0z"/>
<path d="M10740 8193 c0 -255 4 -393 10 -394 49 -3 142 -1 147 5 3 3 6 121 6
262 l0 257 21 -29 c12 -16 19 -29 16 -30 -3 -1 2 -10 11 -20 9 -11 72 -109
139 -219 68 -110 129 -206 136 -214 13 -15 137 -22 164 -10 13 6 15 58 15 396
l0 388 -80 0 -80 0 0 -262 c0 -175 -3 -259 -10 -252 -5 5 -23 32 -40 59 -106
176 -170 275 -177 278 -4 2 -8 8 -8 13 0 11 -91 159 -99 160 -3 1 -43 2 -88 3
l-83 2 0 -393z"/>
<path d="M4325 4544 c-5 -1 -27 -5 -48 -9 -21 -3 -51 -18 -66 -33 -25 -24 -33
-38 -49 -92 -8 -24 -6 -272 2 -304 10 -40 42 -83 75 -100 34 -18 98 -25 134
-15 24 7 33 3 60 -26 l33 -34 34 30 35 30 -29 25 -29 26 17 48 c26 71 27 263
3 345 -5 17 -30 59 -41 70 -19 18 -66 39 -72 32 -3 -3 -16 -2 -28 2 -11 5 -25
7 -31 5z m64 -120 c14 -27 20 -211 10 -286 -9 -66 -69 -92 -112 -49 -21 20
-22 31 -22 177 l0 156 27 23 c35 30 77 21 97 -21z"/>
<path d="M7992 4539 c-29 -4 -64 -14 -78 -24 -36 -23 -65 -94 -69 -168 -2 -34
-5 -64 -6 -67 -1 -5 1 -53 6 -112 4 -49 24 -109 44 -132 59 -67 219 -63 271 8
55 75 60 351 8 431 -20 29 -78 75 -78 61 0 -3 -10 -2 -22 2 -13 5 -47 5 -76 1z
m80 -103 c18 -33 21 -52 21 -181 1 -141 -10 -176 -60 -186 -63 -13 -80 27 -82
187 -2 145 13 201 57 206 37 5 51 -1 64 -26z"/>
<path d="M8420 4544 c-76 -12 -93 -18 -113 -37 -34 -31 -47 -60 -49 -104 -4
-103 22 -133 157 -188 56 -23 75 -43 75 -81 0 -46 -39 -76 -82 -63 -36 10 -48
24 -48 56 0 27 -15 37 -60 38 -48 2 -60 -9 -50 -46 5 -16 7 -29 4 -29 -12 0
29 -62 50 -75 30 -20 59 -26 124 -26 113 -1 186 70 176 171 -7 71 -29 95 -130
144 -99 48 -101 49 -108 88 -7 42 19 70 62 66 31 -2 38 -8 47 -33 13 -39 18
-42 68 -41 40 1 42 3 42 31 1 39 -19 79 -50 99 -25 17 -90 34 -115 30z"/>
<path d="M9938 4540 c-15 -5 -29 -6 -32 -3 -11 11 -79 -51 -93 -86 -18 -42
-12 -118 12 -155 15 -22 66 -52 156 -90 39 -17 58 -48 52 -86 -5 -35 -25 -51
-62 -52 -38 -1 -60 17 -67 57 -7 41 -8 42 -61 40 l-48 -1 2 -42 c2 -69 44
-119 108 -129 52 -9 127 -2 161 14 54 26 77 63 82 130 6 90 -19 119 -163 184
-58 27 -74 44 -75 81 0 34 24 58 58 58 37 0 48 -10 56 -46 7 -31 9 -32 57 -31
48 1 49 2 49 33 0 50 -29 92 -75 109 -54 20 -85 24 -117 15z"/>
<path d="M10703 4539 c-109 -20 -142 -93 -138 -300 3 -165 31 -229 104 -245
14 -3 31 -7 38 -9 20 -6 83 15 104 36 10 10 20 17 20 14 1 -3 3 -9 4 -15 1 -5
3 -14 4 -18 1 -10 64 -10 71 0 3 4 5 69 5 145 l0 138 -85 0 -85 0 -6 -37 c-5
-36 -4 -38 20 -39 14 -1 32 -1 39 0 21 3 15 -82 -8 -111 -29 -37 -58 -41 -84
-13 -28 30 -28 32 -30 190 0 111 2 134 18 158 12 18 27 27 45 27 37 0 48 -10
58 -50 9 -34 10 -35 62 -36 l52 -1 -7 41 c-3 22 -10 48 -14 56 -29 54 -107 83
-187 69z"/>
<path d="M13551 4539 c-11 -5 -21 -6 -21 -4 0 3 -15 -4 -32 -14 -55 -30 -75
-79 -70 -173 3 -39 46 -85 108 -113 30 -14 57 -25 60 -25 3 0 19 -9 35 -21 20
-14 29 -29 29 -49 0 -30 -26 -68 -50 -71 -55 -6 -78 12 -82 65 -1 14 -7 27
-13 29 -18 6 -100 1 -99 -6 1 -4 4 -29 8 -56 10 -76 59 -111 160 -113 122 -2
187 53 188 163 0 70 -28 108 -106 142 -102 46 -110 52 -125 82 -12 25 -12 32
0 54 29 52 108 34 109 -25 0 -18 6 -20 53 -20 57 1 60 5 44 66 -15 57 -62 86
-158 95 -9 1 -26 -2 -38 -6z"/>
<path d="M3800 4500 c0 -97 1 -257 0 -270 -2 -80 0 -221 3 -227 3 -5 72 -8
154 -8 l148 1 0 44 0 45 -97 -1 c-107 0 -100 -5 -100 66 0 87 -8 80 92 80 l90
0 -2 44 -1 44 -84 0 c-47 0 -87 2 -89 5 -3 3 -6 30 -7 60 -2 65 -7 63 111 62
l82 0 0 45 0 45 -150 0 -151 0 1 -35z"/>
<path d="M4574 4525 c-2 -5 -3 -104 -1 -220 3 -227 8 -250 58 -288 37 -27 99
-36 161 -24 55 11 89 38 110 87 12 29 18 449 6 451 -38 6 -98 2 -99 -6 0 -5
-1 -104 -2 -218 -2 -202 -3 -209 -24 -227 -14 -11 -32 -16 -48 -13 -47 9 -48
16 -51 257 -2 109 -5 201 -8 204 -10 9 -98 7 -102 -3z"/>
<path d="M5000 4530 c-7 -4 -9 -97 -8 -270 l3 -264 50 0 50 0 1 267 c0 147 -2
267 -5 268 -26 5 -83 4 -91 -1z"/>
<path d="M5183 4523 c-7 -17 -9 -523 -3 -524 25 -7 100 -2 102 6 0 5 2 48 3
95 2 47 3 90 4 96 1 6 28 14 64 16 109 10 156 56 159 158 2 63 -19 111 -59
137 -34 23 -40 23 -162 26 -76 2 -105 -1 -108 -10z m179 -77 c29 -7 48 -45 43
-91 -5 -40 -28 -58 -76 -59 l-42 -1 -1 73 c-1 73 9 95 38 87 6 -2 23 -6 38 -9z"/>
<path d="M5634 4529 c-5 -8 -53 -185 -60 -219 -2 -14 -7 -32 -11 -40 -3 -8 -7
-19 -8 -25 -2 -5 -14 -55 -28 -110 -39 -150 -41 -139 21 -140 39 0 53 3 56 15
3 8 10 34 16 58 l11 42 68 0 c75 0 77 -1 87 -69 3 -20 8 -39 10 -42 4 -8 102
-4 110 4 4 4 1 13 -6 22 -7 8 -10 15 -7 15 3 0 -3 30 -14 68 -11 37 -21 76
-24 87 -2 11 -14 56 -26 100 -11 44 -23 87 -25 95 -28 114 -38 140 -53 141
-69 4 -113 3 -117 -2z m75 -136 c6 -21 12 -49 15 -63 2 -14 9 -47 15 -73 6
-27 9 -51 7 -55 -7 -12 -96 -1 -96 12 0 6 6 36 14 66 8 30 17 76 21 103 4 26
9 47 11 47 2 0 8 -17 13 -37z"/>
<path d="M5958 4529 c-15 -10 -14 -519 1 -528 9 -6 45 -7 83 -2 3 1 5 87 5
191 -1 105 1 190 4 190 4 0 17 -44 29 -97 12 -54 32 -141 44 -193 l22 -95 42
0 c23 -1 42 0 42 2 0 2 9 43 19 91 11 48 22 98 25 112 3 14 13 59 22 100 9 41
17 80 18 87 8 50 12 -7 12 -184 l0 -207 47 -1 c26 0 48 4 48 10 1 5 2 126 3
268 1 238 0 257 -16 258 -10 1 -38 1 -63 1 -86 0 -81 3 -95 -64 -7 -35 -14
-70 -15 -78 -1 -8 -6 -28 -9 -45 -4 -16 -9 -43 -12 -60 -2 -16 -10 -52 -16
-80 l-12 -50 -18 85 c-10 47 -20 96 -21 110 -2 14 -12 61 -22 105 l-17 80 -70
0 c-38 0 -74 -3 -80 -6z"/>
<path d="M6510 4490 c-3 -248 -1 -480 3 -487 4 -7 69 -10 97 -4 3 1 6 120 6
266 0 261 0 265 -20 266 -12 1 -36 2 -53 3 -33 2 -33 1 -33 -44z"/>
<path d="M6697 4525 c-1 -5 -3 -127 -2 -270 l0 -259 155 -1 155 0 1 35 c0 19
-1 40 -3 45 -2 6 -39 10 -91 10 -48 -1 -92 0 -97 2 -9 3 -13 95 -6 136 0 4 41
7 90 7 l89 0 -2 43 -2 42 -65 2 c-35 1 -75 2 -89 2 -24 1 -25 4 -25 61 0 33 2
61 5 61 3 1 46 2 95 3 l90 1 1 43 c1 25 -3 42 -10 43 -66 7 -286 2 -289 -6z"/>
<path d="M7059 4515 c-4 -128 -1 -507 5 -512 4 -5 27 -8 50 -8 l43 -1 -1 178
c0 98 2 178 6 178 4 0 11 -15 17 -32 5 -18 26 -78 46 -133 20 -55 40 -111 43
-125 11 -54 28 -66 84 -64 29 1 55 2 58 3 4 1 5 492 1 527 0 6 -16 9 -33 8
-18 -1 -40 -3 -48 -3 -14 -1 -16 -25 -15 -176 0 -154 -6 -201 -20 -139 -2 10
-13 44 -25 74 -11 30 -34 96 -51 145 -17 50 -33 92 -35 94 -3 3 -31 5 -64 5
-53 1 -60 -1 -61 -19z"/>
<path d="M7463 4523 c-2 -6 -3 -26 -1 -45 l3 -33 55 0 55 0 2 -145 c1 -80 2
-181 2 -225 l1 -81 53 1 52 1 2 204 c1 113 2 214 2 226 1 18 7 20 58 20 l57
-1 1 43 c1 36 -2 42 -19 43 -131 7 -319 2 -323 -8z"/>
<path d="M8859 4531 c-12 -5 -14 -52 -14 -271 l0 -265 95 0 c161 0 209 23 240
115 15 44 18 79 16 175 -4 157 -26 210 -98 234 -39 13 -215 21 -239 12z m197
-91 c1 0 9 -16 19 -36 13 -28 16 -59 14 -147 -2 -117 -14 -161 -46 -171 -43
-13 -73 -14 -80 -3 -5 7 -8 92 -9 189 0 172 0 177 20 180 12 2 34 0 51 -4 16
-4 31 -8 31 -8z"/>
<path d="M9287 4532 c-16 -3 -17 -27 -16 -267 1 -187 5 -265 13 -267 6 -2 74
-4 151 -3 l140 0 3 45 3 46 -88 -1 c-48 -1 -94 1 -100 3 -9 3 -13 27 -13 74
l0 69 63 -1 c124 -3 117 -6 117 44 l0 43 -82 1 c-46 0 -87 1 -91 1 -4 1 -7 29
-5 63 l3 63 92 -1 91 0 4 38 c2 22 1 42 -2 46 -5 7 -250 10 -283 4z"/>
<path d="M10217 4530 c-10 -4 -12 -66 -11 -265 1 -143 2 -262 3 -265 0 -3 67
-5 147 -5 137 1 147 2 153 20 4 11 6 27 5 35 -1 8 -2 20 -3 26 -1 6 -32 10
-83 9 -120 -2 -116 -5 -115 76 l0 69 89 0 c71 0 88 3 89 15 1 8 1 27 2 43 l1
27 -90 1 -89 1 0 64 0 64 93 -1 c50 0 92 2 93 5 8 49 4 81 -10 82 -61 4 -264
3 -274 -1z"/>
<path d="M10979 4520 c-4 -57 1 -401 6 -424 18 -85 112 -129 220 -103 40 10
104 63 106 89 1 7 3 24 5 38 3 25 7 281 5 370 -1 44 -2 45 -33 43 -18 -1 -43
-2 -55 -2 -21 -1 -21 -3 -22 -203 0 -112 -1 -204 -2 -205 -2 -3 -6 -20 -8 -31
-2 -13 -43 -28 -67 -24 -41 6 -47 39 -48 258 l-1 207 -53 1 c-40 1 -52 -3 -53
-14z"/>
<path d="M11410 4532 l-25 -3 5 -267 5 -266 50 0 50 0 2 104 c1 58 2 110 2
116 1 13 79 8 97 -7 15 -12 22 -46 27 -135 2 -34 7 -65 10 -70 4 -7 99 -11
115 -5 1 1 -2 9 -7 19 -5 10 -11 50 -12 88 -3 88 -14 122 -51 144 -29 17 -29
18 -6 23 32 9 54 52 57 114 3 67 -16 105 -67 132 -20 11 -193 20 -252 13z
m192 -99 c21 -19 24 -81 5 -107 -7 -10 -32 -22 -56 -26 -49 -9 -53 -4 -53 62
-1 98 -3 95 44 91 23 -2 50 -11 60 -20z"/>
<path d="M11839 4532 l-27 -3 2 -266 1 -266 53 -1 c46 -2 52 1 53 19 1 21 1
493 0 510 -1 10 -33 13 -82 7z"/>
<path d="M12012 4530 c-5 -4 -8 -468 -3 -525 2 -18 209 -11 254 8 35 15 78 69
84 107 9 61 15 109 15 130 -3 171 -25 231 -100 269 -23 12 -236 21 -250 11z
m185 -85 c24 -6 52 -49 52 -81 0 -10 0 -52 1 -92 2 -155 -17 -193 -98 -196
l-37 -1 -1 180 c0 99 2 185 4 192 3 11 24 10 79 -2z"/>
<path d="M12519 4530 c-7 -5 -119 -402 -144 -512 -4 -19 8 -25 53 -22 56 3 59
4 59 17 0 6 6 31 12 55 l12 42 69 0 c75 0 77 -1 85 -72 3 -17 7 -33 10 -37 3
-3 31 -6 60 -6 50 0 54 1 48 20 -3 11 -9 34 -13 50 -24 97 -122 461 -126 464
-7 7 -113 8 -125 1z m68 -112 c1 -12 4 -30 17 -103 2 -11 9 -40 16 -64 6 -23
9 -46 5 -49 -6 -6 -87 -3 -94 3 -3 4 39 205 46 218 6 10 10 9 10 -5z"/>
<path d="M12852 4532 l-22 -3 2 -267 3 -267 110 1 c118 1 150 10 193 57 28 30
48 123 46 215 -4 216 -42 262 -217 265 -51 1 -102 1 -115 -1z m189 -92 c20 -1
34 -74 33 -180 0 -95 -4 -121 -19 -148 -11 -17 -27 -33 -37 -33 -10 -1 -30 -2
-45 -3 l-28 -1 -3 184 c-2 129 1 187 9 191 6 4 27 4 48 -1 20 -5 39 -9 42 -9z"/>
<path d="M14127 4532 c-9 -2 -20 -16 -23 -30 -3 -15 -26 -99 -50 -188 -23 -88
-45 -172 -48 -185 -4 -17 -33 -128 -36 -134 0 -1 106 3 113 4 4 1 7 9 7 19 0
9 5 34 11 55 l10 37 69 0 69 0 12 -42 c6 -24 12 -50 14 -57 1 -11 17 -15 59
-16 53 -1 57 1 51 20 -3 11 -21 83 -41 160 -20 77 -40 149 -44 160 -5 11 -11
31 -14 45 -11 55 -35 142 -40 147 -6 7 -94 10 -119 5z m67 -147 c3 -22 11 -60
16 -85 23 -101 23 -97 -7 -101 -15 -2 -39 -3 -51 -1 -20 3 -23 8 -17 30 4 15
8 36 10 47 3 24 23 112 31 138 8 24 11 20 18 -28z"/>
<path d="M13847 4112 c-15 -3 -17 -12 -15 -60 l3 -57 45 0 45 0 3 58 c2 31 -1
57 -5 58 -36 3 -61 4 -76 1z"/>
</g>
</svg>
