<?xml version="1.0" encoding="UTF-8" standalone="no"?>
<!-- Created with Inkscape (http://www.inkscape.org/) -->

<svg
   xmlns:dc="http://purl.org/dc/elements/1.1/"
   xmlns:cc="http://creativecommons.org/ns#"
   xmlns:rdf="http://www.w3.org/1999/02/22-rdf-syntax-ns#"
   xmlns:svg="http://www.w3.org/2000/svg"
   xmlns="http://www.w3.org/2000/svg"
   xmlns:sodipodi="http://sodipodi.sourceforge.net/DTD/sodipodi-0.dtd"
   xmlns:inkscape="http://www.inkscape.org/namespaces/inkscape"
   id="svg2"
   version="1.1"
   inkscape:version="0.91 r13725"
   xml:space="preserve"
   width="180.53525"
   height="82.436752"
   viewBox="0 0 180.53524 82.436752"
   sodipodi:docname="mesquita_inverted.svg"><metadata
     id="metadata8"><rdf:RDF><cc:Work
         rdf:about=""><dc:format>image/svg+xml</dc:format><dc:type
           rdf:resource="http://purl.org/dc/dcmitype/StillImage" /><dc:title /></cc:Work></rdf:RDF></metadata><defs
     id="defs6"><clipPath
       clipPathUnits="userSpaceOnUse"
       id="clipPath20"><path
         d="m 0,595.276 841.89,0 L 841.89,0 0,0 0,595.276 Z"
         id="path22"
         inkscape:connector-curvature="0" /></clipPath><clipPath
       clipPathUnits="userSpaceOnUse"
       id="clipPath178"><path
         d="m 349.25,452.427 c 0,-7.625 17.625,-11.113 29.625,-11 l 0,0 C 441,442.011 492,460.552 492,460.552 l 0,0 c 0,0 -40.334,-11.042 -70,-11.874 l 0,0 c -5.005,-0.14 -49.125,-2.375 -49.125,11 l 0,0 c 0,15 46.75,29.874 46.75,29.874 l 0,0 c 0,0 -70.375,-18.749 -70.375,-37.125"
         id="path180"
         inkscape:connector-curvature="0" /></clipPath><linearGradient
       x1="0"
       y1="0"
       x2="1"
       y2="0"
       gradientUnits="userSpaceOnUse"
       gradientTransform="matrix(145.50221,0,0,-145.50221,343.65479,465.48926)"
       spreadMethod="pad"
       id="linearGradient186"><stop
         style="stop-opacity:1;stop-color:#fbaf5e"
         offset="0"
         id="stop188" /><stop
         style="stop-opacity:1;stop-color:#f89828"
         offset="0.67982352"
         id="stop190" /><stop
         style="stop-opacity:1;stop-color:#f89828"
         offset="1"
         id="stop192" /></linearGradient><clipPath
       clipPathUnits="userSpaceOnUse"
       id="clipPath200"><path
         d="m 479.031,459.218 c 0,-3.32 2.691,-6.012 6.012,-6.012 l 0,0 c 3.32,0 6.011,2.692 6.011,6.012 l 0,0 c 0,3.32 -2.691,6.012 -6.011,6.012 l 0,0 c -3.321,0 -6.012,-2.692 -6.012,-6.012"
         id="path202"
         inkscape:connector-curvature="0" /></clipPath><radialGradient
       fx="0"
       fy="0"
       cx="0"
       cy="0"
       r="1"
       gradientUnits="userSpaceOnUse"
       gradientTransform="matrix(3.9788513,0,0,-3.9788513,484.07227,460.80908)"
       spreadMethod="pad"
       id="radialGradient208"><stop
         style="stop-opacity:1;stop-color:#ffffff"
         offset="0"
         id="stop210" /><stop
         style="stop-opacity:1;stop-color:#231f20"
         offset="1"
         id="stop212" /></radialGradient><clipPath
       clipPathUnits="userSpaceOnUse"
       id="clipPath220"><path
         d="m 0,595.276 841.89,0 L 841.89,0 0,0 0,595.276 Z"
         id="path222"
         inkscape:connector-curvature="0" /></clipPath></defs><sodipodi:namedview
     pagecolor="#ffffff"
     bordercolor="#666666"
     borderopacity="1"
     objecttolerance="10"
     gridtolerance="10"
     guidetolerance="10"
     inkscape:pageopacity="0"
     inkscape:pageshadow="2"
     inkscape:window-width="1920"
     inkscape:window-height="1025"
     id="namedview4"
     showgrid="false"
     fit-margin-top="0"
     fit-margin-left="0"
     fit-margin-right="0"
     fit-margin-bottom="0"
     inkscape:zoom="11.313709"
     inkscape:cx="101.60367"
     inkscape:cy="61.198078"
     inkscape:window-x="0"
     inkscape:window-y="0"
     inkscape:window-maximized="1"
     inkscape:current-layer="g10" /><g
     id="g10"
     inkscape:groupmode="layer"
     inkscape:label="logo_mesquita"
     transform="matrix(1.25,0,0,-1.25,-434.46475,611.94)"><g
       id="g3769"><g
         transform="translate(388.4609,429.6206)"
         id="g12"><path
           inkscape:connector-curvature="0"
           id="path14"
           style="fill:#231f20;fill-opacity:1;fill-rule:nonzero;stroke:none"
           d="m 0,0 0,-0.885 -1.914,0 0,-1.261 1.801,0 0,-0.885 -1.801,0 0,-1.441 1.988,0 0,-0.885 -3.068,0 0,5.357 L 0,0 Z" /></g><g
         id="g18"
         clip-path="url(#clipPath20)"><g
           id="g24"
           transform="translate(390.7856,424.9536)"><path
             d="M 0,0 C 0.638,0 0.743,0.548 0.743,1.989 0.743,3.421 0.638,3.977 0,3.977 -0.637,3.977 -0.743,3.421 -0.743,1.989 -0.743,0.548 -0.637,0 0,0 M 1.351,-1.351 0.713,-0.69 C 0.615,-0.728 0.503,-0.758 0.383,-0.772 0.27,-0.788 0.143,-0.795 0,-0.795 c -1.621,0 -1.823,1.155 -1.823,2.784 0,1.628 0.202,2.783 1.823,2.783 1.621,0 1.824,-1.155 1.824,-2.783 0,-0.908 -0.06,-1.667 -0.413,-2.177 L 1.988,-0.772 1.351,-1.351 Z"
             style="fill:#231f20;fill-opacity:1;fill-rule:nonzero;stroke:none"
             id="path26"
             inkscape:connector-curvature="0" /></g><g
           id="g28"
           transform="translate(394.2588,429.6206)"><path
             d="m 0,0 0,-3.736 c 0,-0.533 0.128,-0.931 0.63,-0.931 0.503,0 0.631,0.398 0.631,0.931 l 0,3.736 1.08,0 0,-3.736 c 0,-1.366 -0.833,-1.726 -1.711,-1.726 -0.877,0 -1.711,0.293 -1.711,1.726 L -1.081,0 0,0 Z"
             style="fill:#231f20;fill-opacity:1;fill-rule:nonzero;stroke:none"
             id="path30"
             inkscape:connector-curvature="0" /></g><path
           d="m 397.334,429.621 1.081,0 0,-5.357 -1.081,0 0,5.357 z"
           style="fill:#231f20;fill-opacity:1;fill-rule:nonzero;stroke:none"
           id="path32"
           inkscape:connector-curvature="0" /><g
           id="g34"
           transform="translate(400.2983,427.1968)"><path
             d="m 0,0 0.48,0 c 0.428,0 0.721,0.256 0.721,0.803 0,0.525 -0.21,0.825 -0.751,0.825 L 0,1.628 0,0 Z m -1.08,2.424 1.891,0 c 1.095,0 1.47,-0.803 1.47,-1.606 0,-1.11 -0.683,-1.613 -1.703,-1.613 l -0.578,0 0,-2.139 -1.08,0 0,5.358 z"
             style="fill:#231f20;fill-opacity:1;fill-rule:nonzero;stroke:none"
             id="path36"
             inkscape:connector-curvature="0" /></g><g
           id="g38"
           transform="translate(403.8916,426.2817)"><path
             d="M 0,0 1.051,0 0.533,2.409 0.518,2.409 0,0 Z m -0.142,3.339 1.335,0 1.418,-5.358 -1.125,0 -0.248,1.133 -1.426,0 -0.247,-1.133 -1.126,0 1.419,5.358 z"
             style="fill:#231f20;fill-opacity:1;fill-rule:nonzero;stroke:none"
             id="path40"
             inkscape:connector-curvature="0" /></g><g
           id="g42"
           transform="translate(406.8999,429.6206)"><path
             d="m 0,0 1.606,0 0.765,-3.782 0.015,0 0.773,3.782 1.598,0 0,-5.357 -0.99,0 0,4.276 -0.016,0 -0.952,-4.276 -0.841,0 -0.952,4.276 -0.016,0 0,-4.276 -0.99,0 L 0,0 Z"
             style="fill:#231f20;fill-opacity:1;fill-rule:nonzero;stroke:none"
             id="path44"
             inkscape:connector-curvature="0" /></g><path
           d="m 412.482,429.621 1.081,0 0,-5.357 -1.081,0 0,5.357 z"
           style="fill:#231f20;fill-opacity:1;fill-rule:nonzero;stroke:none"
           id="path46"
           inkscape:connector-curvature="0" /><g
           id="g48"
           transform="translate(417.3584,429.6206)"><path
             d="m 0,0 0,-0.885 -1.914,0 0,-1.261 1.801,0 0,-0.885 -1.801,0 0,-1.441 1.989,0 0,-0.885 -3.069,0 0,5.357 L 0,0 Z"
             style="fill:#231f20;fill-opacity:1;fill-rule:nonzero;stroke:none"
             id="path50"
             inkscape:connector-curvature="0" /></g><g
           id="g52"
           transform="translate(419.2188,429.6206)"><path
             d="m 0,0 1.306,-3.669 0.014,0 0,3.669 0.991,0 0,-5.357 -1.23,0 -1.321,3.752 -0.015,0 0,-3.752 -0.991,0 0,5.357 L 0,0 Z"
             style="fill:#231f20;fill-opacity:1;fill-rule:nonzero;stroke:none"
             id="path54"
             inkscape:connector-curvature="0" /></g><g
           id="g56"
           transform="translate(425.416,429.6206)"><path
             d="m 0,0 0,-0.885 -1.172,0 0,-4.472 -1.08,0 0,4.472 -1.17,0 0,0.885 L 0,0 Z"
             style="fill:#231f20;fill-opacity:1;fill-rule:nonzero;stroke:none"
             id="path58"
             inkscape:connector-curvature="0" /></g><g
           id="g60"
           transform="translate(427.5898,424.9536)"><path
             d="M 0,0 C 0.64,0 0.744,0.548 0.744,1.989 0.744,3.421 0.64,3.977 0,3.977 -0.637,3.977 -0.741,3.421 -0.741,1.989 -0.741,0.548 -0.637,0 0,0 m 0,4.772 c 1.621,0 1.824,-1.155 1.824,-2.783 0,-1.629 -0.203,-2.784 -1.824,-2.784 -1.62,0 -1.821,1.155 -1.821,2.784 0,1.628 0.201,2.783 1.821,2.783"
             style="fill:#231f20;fill-opacity:1;fill-rule:nonzero;stroke:none"
             id="path62"
             inkscape:connector-curvature="0" /></g><g
           id="g64"
           transform="translate(430.9219,425.9365)"><path
             d="m 0,0 0,-0.158 c 0,-0.503 0.142,-0.825 0.713,-0.825 0.329,0 0.644,0.21 0.644,0.66 0,0.489 -0.247,0.668 -0.96,0.916 -0.96,0.33 -1.403,0.727 -1.403,1.62 0,1.044 0.639,1.576 1.659,1.576 0.96,0 1.658,-0.413 1.658,-1.44 l 0,-0.151 -1.037,0 c 0,0.503 -0.171,0.796 -0.585,0.796 -0.487,0 -0.615,-0.307 -0.615,-0.623 0,-0.33 0.099,-0.533 0.556,-0.728 l 0.833,-0.36 c 0.81,-0.353 1.019,-0.765 1.019,-1.418 0,-1.133 -0.688,-1.643 -1.86,-1.643 -1.223,0 -1.703,0.57 -1.703,1.56 L -1.081,0 0,0 Z"
             style="fill:#231f20;fill-opacity:1;fill-rule:nonzero;stroke:none"
             id="path66"
             inkscape:connector-curvature="0" /></g><g
           id="g68"
           transform="translate(436.8789,425.0586)"><path
             d="M 0,0 0.479,0 C 1.229,0 1.38,0.473 1.38,1.928 1.38,3.144 1.282,3.767 0.456,3.767 L 0,3.767 0,0 Z m -1.081,4.562 1.769,0 c 1.501,0 1.773,-1.028 1.773,-2.604 0,-1.898 -0.405,-2.753 -1.839,-2.753 l -1.703,0 0,5.357 z"
             style="fill:#231f20;fill-opacity:1;fill-rule:nonzero;stroke:none"
             id="path70"
             inkscape:connector-curvature="0" /></g><g
           id="g72"
           transform="translate(443.0449,429.6206)"><path
             d="m 0,0 0,-0.885 -1.912,0 0,-1.261 1.801,0 0,-0.885 -1.801,0 0,-1.441 1.988,0 0,-0.885 -3.069,0 0,5.357 L 0,0 Z"
             style="fill:#231f20;fill-opacity:1;fill-rule:nonzero;stroke:none"
             id="path74"
             inkscape:connector-curvature="0" /></g><g
           id="g76"
           transform="translate(446.3311,425.9365)"><path
             d="m 0,0 0,-0.158 c 0,-0.503 0.142,-0.825 0.713,-0.825 0.329,0 0.644,0.21 0.644,0.66 0,0.489 -0.248,0.668 -0.96,0.916 -0.96,0.33 -1.403,0.727 -1.403,1.62 0,1.044 0.638,1.576 1.658,1.576 0.961,0 1.659,-0.413 1.659,-1.44 l 0,-0.151 -1.036,0 c 0,0.503 -0.173,0.796 -0.586,0.796 -0.488,0 -0.614,-0.307 -0.614,-0.623 0,-0.33 0.098,-0.533 0.555,-0.728 l 0.832,-0.36 c 0.811,-0.353 1.02,-0.765 1.02,-1.418 0,-1.133 -0.689,-1.643 -1.86,-1.643 -1.222,0 -1.702,0.57 -1.702,1.56 L -1.08,0 0,0 Z"
             style="fill:#231f20;fill-opacity:1;fill-rule:nonzero;stroke:none"
             id="path78"
             inkscape:connector-curvature="0" /></g><g
           id="g80"
           transform="translate(452.3477,429.6206)"><path
             d="m 0,0 0,-0.885 -1.913,0 0,-1.261 1.801,0 0,-0.885 -1.801,0 0,-1.441 1.988,0 0,-0.885 -3.069,0 0,5.357 L 0,0 Z"
             style="fill:#231f20;fill-opacity:1;fill-rule:nonzero;stroke:none"
             id="path82"
             inkscape:connector-curvature="0" /></g><g
           id="g84"
           transform="translate(455.3408,428.0298)"><path
             d="m 0,0 c 0,0.397 -0.181,0.9 -0.616,0.9 -0.525,0 -0.736,-0.54 -0.736,-1.875 0,-1.291 0.121,-2.101 0.744,-2.101 0.255,0 0.668,0.278 0.668,0.855 l 0,0.548 -0.712,0 0,0.796 1.748,0 0,-2.89 -0.796,0 0,0.496 -0.016,0 c -0.255,-0.42 -0.622,-0.601 -1.125,-0.601 -1.328,0 -1.591,0.991 -1.591,2.845 0,1.8 0.42,2.723 1.8,2.723 C 0.556,1.696 1.036,1.088 1.036,0 L 0,0 Z"
             style="fill:#231f20;fill-opacity:1;fill-rule:nonzero;stroke:none"
             id="path86"
             inkscape:connector-curvature="0" /></g><g
           id="g88"
           transform="translate(458.1465,429.6206)"><path
             d="m 0,0 0,-3.736 c 0,-0.533 0.128,-0.931 0.629,-0.931 0.504,0 0.632,0.398 0.632,0.931 l 0,3.736 1.08,0 0,-3.736 c 0,-1.366 -0.833,-1.726 -1.712,-1.726 -0.877,0 -1.71,0.293 -1.71,1.726 L -1.081,0 0,0 Z"
             style="fill:#231f20;fill-opacity:1;fill-rule:nonzero;stroke:none"
             id="path90"
             inkscape:connector-curvature="0" /></g><g
           id="g92"
           transform="translate(462.249,427.2798)"><path
             d="m 0,0 0.451,0 c 0.518,0 0.81,0.225 0.81,0.803 0,0.494 -0.262,0.742 -0.749,0.742 L 0,1.545 0,0 Z m -1.08,2.341 1.996,0 c 0.885,0 1.425,-0.466 1.425,-1.381 0,-0.713 -0.284,-1.193 -0.893,-1.32 l 0,-0.015 c 0.737,-0.098 0.849,-0.503 0.865,-1.636 0.007,-0.563 0.036,-0.855 0.239,-0.96 l 0,-0.046 -1.171,0 c -0.105,0.151 -0.128,0.353 -0.135,0.563 l -0.03,1.028 C 1.201,-1.005 1.013,-0.75 0.579,-0.75 l -0.579,0 0,-2.267 -1.08,0 0,5.358 z"
             style="fill:#231f20;fill-opacity:1;fill-rule:nonzero;stroke:none"
             id="path94"
             inkscape:connector-curvature="0" /></g><path
           d="m 465.394,429.621 1.081,0 0,-5.357 -1.081,0 0,5.357 z"
           style="fill:#231f20;fill-opacity:1;fill-rule:nonzero;stroke:none"
           id="path96"
           inkscape:connector-curvature="0" /><g
           id="g98"
           transform="translate(468.4082,425.0586)"><path
             d="m 0,0 0.48,0 c 0.751,0 0.901,0.473 0.901,1.928 0,1.216 -0.097,1.839 -0.922,1.839 L 0,3.767 0,0 Z m -1.08,4.562 1.771,0 c 1.501,0 1.77,-1.028 1.77,-2.604 0,-1.898 -0.404,-2.753 -1.837,-2.753 l -1.704,0 0,5.357 z"
             style="fill:#231f20;fill-opacity:1;fill-rule:nonzero;stroke:none"
             id="path100"
             inkscape:connector-curvature="0" /></g><g
           id="g102"
           transform="translate(472.5137,426.2817)"><path
             d="M 0,0 1.049,0 0.532,2.409 0.517,2.409 0,0 Z m -0.144,3.339 1.336,0 1.417,-5.358 -1.125,0 -0.247,1.133 -1.425,0 -0.248,-1.133 -1.125,0 1.417,5.358 z"
             style="fill:#231f20;fill-opacity:1;fill-rule:nonzero;stroke:none"
             id="path104"
             inkscape:connector-curvature="0" /></g><g
           id="g106"
           transform="translate(476.6318,425.0586)"><path
             d="m 0,0 0.48,0 c 0.749,0 0.901,0.473 0.901,1.928 0,1.216 -0.099,1.839 -0.924,1.839 L 0,3.767 0,0 Z m -1.08,4.562 1.769,0 c 1.5,0 1.772,-1.028 1.772,-2.604 0,-1.898 -0.406,-2.753 -1.84,-2.753 l -1.701,0 0,5.357 z"
             style="fill:#231f20;fill-opacity:1;fill-rule:nonzero;stroke:none"
             id="path108"
             inkscape:connector-curvature="0" /></g><g
           id="g110"
           transform="translate(482.4756,425.9365)"><path
             d="m 0,0 0,-0.158 c 0,-0.503 0.144,-0.825 0.712,-0.825 0.332,0 0.645,0.21 0.645,0.66 0,0.489 -0.247,0.668 -0.961,0.916 -0.959,0.33 -1.401,0.727 -1.401,1.62 0,1.044 0.637,1.576 1.657,1.576 0.96,0 1.659,-0.413 1.659,-1.44 l 0,-0.151 -1.035,0 c 0,0.503 -0.172,0.796 -0.586,0.796 -0.487,0 -0.615,-0.307 -0.615,-0.623 0,-0.33 0.097,-0.533 0.555,-0.728 l 0.834,-0.36 c 0.809,-0.353 1.02,-0.765 1.02,-1.418 0,-1.133 -0.691,-1.643 -1.861,-1.643 -1.224,0 -1.704,0.57 -1.704,1.56 L -1.081,0 0,0 Z"
             style="fill:#231f20;fill-opacity:1;fill-rule:nonzero;stroke:none"
             id="path112"
             inkscape:connector-curvature="0" /></g><path
           d="m 486.519,424.263 -0.989,0 0,1.171 0.989,0 0,-1.171 z"
           style="fill:#231f20;fill-opacity:1;fill-rule:nonzero;stroke:none"
           id="path114"
           inkscape:connector-curvature="0" /><g
           id="g116"
           transform="translate(488.4834,426.2817)"><path
             d="M 0,0 1.052,0 0.533,2.409 0.52,2.409 0,0 Z m -0.141,3.339 1.334,0 1.419,-5.358 -1.126,0 -0.247,1.133 -1.427,0 -0.247,-1.133 -1.126,0 1.42,5.358 z"
             style="fill:#231f20;fill-opacity:1;fill-rule:nonzero;stroke:none"
             id="path118"
             inkscape:connector-curvature="0" /></g><g
           id="g120"
           transform="translate(479.7793,470.2559)"><path
             d="M 0,0 C 0.164,0 0.309,0.01 0.309,0.186 0.309,0.34 0.177,0.36 0.053,0.36 l -0.246,0 0,-0.36 L 0,0 Z m -0.371,0.524 0.457,0 c 0.26,0 0.402,-0.112 0.402,-0.346 0,-0.21 -0.138,-0.308 -0.318,-0.327 l 0.338,-0.51 -0.181,0 -0.327,0.496 -0.193,0 0,-0.496 -0.178,0 0,1.183 z m 1.232,-0.587 c 0,0.468 -0.371,0.848 -0.832,0.848 -0.459,0 -0.828,-0.38 -0.828,-0.848 0,-0.467 0.369,-0.846 0.828,-0.846 0.461,0 0.832,0.379 0.832,0.846 M 0.029,0.948 c 0.561,0 1.012,-0.452 1.012,-1.011 0,-0.558 -0.451,-1.009 -1.012,-1.009 -0.556,0 -1.008,0.451 -1.008,1.009 0,0.559 0.452,1.011 1.008,1.011"
             style="fill:#231f20;fill-opacity:1;fill-rule:nonzero;stroke:none"
             id="path122"
             inkscape:connector-curvature="0" /></g><g
           id="g124"
           transform="translate(385.8477,470.0522)"><path
             d="m 0,0 2.431,0 1.838,-5.402 0.022,0 L 6.029,0 8.46,0 l 0,-7.855 -1.617,0 0,5.567 -0.022,0 -1.925,-5.567 -1.332,0 -1.925,5.512 -0.022,0 0,-5.512 L 0,-7.855 0,0 Z"
             style="fill:#231f20;fill-opacity:1;fill-rule:nonzero;stroke:none"
             id="path126"
             inkscape:connector-curvature="0" /></g><g
           id="g128"
           transform="translate(395.8247,470.0522)"><path
             d="m 0,0 5.875,0 0,-1.452 -4.148,0 0,-1.683 3.807,0 0,-1.343 -3.807,0 0,-1.925 4.236,0 0,-1.452 L 0,-7.855 0,0 Z"
             style="fill:#231f20;fill-opacity:1;fill-rule:nonzero;stroke:none"
             id="path130"
             inkscape:connector-curvature="0" /></g><g
           id="g132"
           transform="translate(404.1299,464.8047)"><path
             d="m 0,0 c 0,-1.045 0.814,-1.452 1.738,-1.452 0.605,0 1.529,0.176 1.529,0.979 0,0.847 -1.177,0.99 -2.332,1.298 -1.166,0.308 -2.343,0.759 -2.343,2.234 0,1.606 1.518,2.376 2.937,2.376 1.639,0 3.146,-0.715 3.146,-2.531 l -1.672,0 C 2.948,3.851 2.277,4.093 1.452,4.093 0.902,4.093 0.264,3.861 0.264,3.201 0.264,2.596 0.638,2.52 2.607,2.013 3.179,1.87 4.939,1.507 4.939,-0.275 c 0,-1.441 -1.133,-2.519 -3.267,-2.519 -1.738,0 -3.366,0.857 -3.344,2.794 L 0,0 Z"
             style="fill:#231f20;fill-opacity:1;fill-rule:nonzero;stroke:none"
             id="path134"
             inkscape:connector-curvature="0" /></g><g
           id="g136"
           transform="translate(414.3706,465.1016)"><path
             d="m 0,0 0.891,-0.814 c 0.286,0.396 0.484,0.99 0.484,1.804 0,1.375 -0.583,2.696 -2.134,2.696 -1.551,0 -2.134,-1.321 -2.134,-2.696 0,-1.309 0.583,-2.629 2.134,-2.629 0.253,0 0.572,0 0.693,0.11 L -0.803,-0.858 0,0 Z m 2.255,-3.642 -1.11,1.013 c -0.518,-0.297 -1.167,-0.462 -1.904,-0.462 -2.431,0 -3.862,1.815 -3.862,4.081 0,2.333 1.431,4.148 3.862,4.148 2.431,0 3.862,-1.815 3.862,-4.148 0,-1.133 -0.363,-2.145 -1.023,-2.893 L 3.059,-2.794 2.255,-3.642 Z"
             style="fill:#231f20;fill-opacity:1;fill-rule:nonzero;stroke:none"
             id="path138"
             inkscape:connector-curvature="0" /></g><g
           id="g140"
           transform="translate(425.3164,465.1675)"><path
             d="M 0,0 C 0,-2.123 -1.254,-3.157 -3.355,-3.157 -5.468,-3.157 -6.7,-2.134 -6.7,0 l 0,4.885 1.727,0 0,-4.885 c 0,-0.858 0.22,-1.705 1.618,-1.705 1.232,0 1.627,0.539 1.627,1.705 l 0,4.885 L 0,4.885 0,0 Z"
             style="fill:#231f20;fill-opacity:1;fill-rule:nonzero;stroke:none"
             id="path142"
             inkscape:connector-curvature="0" /></g><path
           d="m 426.801,470.052 1.727,0 0,-7.855 -1.727,0 0,7.855 z"
           style="fill:#231f20;fill-opacity:1;fill-rule:nonzero;stroke:none"
           id="path144"
           inkscape:connector-curvature="0" /><g
           id="g146"
           transform="translate(431.7832,468.6001)"><path
             d="m 0,0 -2.354,0 0,1.452 6.436,0 0,-1.452 -2.354,0 0,-6.403 L 0,-6.403 0,0 Z"
             style="fill:#231f20;fill-opacity:1;fill-rule:nonzero;stroke:none"
             id="path148"
             inkscape:connector-curvature="0" /></g><g
           id="g150"
           transform="translate(437.9326,465.2339)"><path
             d="m 0,0 2.036,0 -0.99,2.882 -0.023,0 L 0,0 Z m 0.165,4.818 1.772,0 2.937,-7.855 -1.793,0 -0.595,1.749 -2.937,0 -0.616,-1.749 -1.749,0 2.981,7.855 z"
             style="fill:#231f20;fill-opacity:1;fill-rule:nonzero;stroke:none"
             id="path152"
             inkscape:connector-curvature="0" /></g><g
           id="g154"
           transform="translate(446.5449,470.0522)"><path
             d="m 0,0 1.728,0 0,-3.014 3.179,0 0,3.014 1.728,0 0,-7.855 -1.728,0 0,3.389 -3.179,0 0,-3.389 L 0,-7.855 0,0 Z"
             style="fill:#231f20;fill-opacity:1;fill-rule:nonzero;stroke:none"
             id="path156"
             inkscape:connector-curvature="0" /></g><g
           id="g158"
           transform="translate(454.6963,470.0522)"><path
             d="m 0,0 1.716,0 3.279,-5.27 0.022,0 0,5.27 1.617,0 0,-7.855 -1.727,0 -3.267,5.259 -0.023,0 0,-5.259 L 0,-7.855 0,0 Z"
             style="fill:#231f20;fill-opacity:1;fill-rule:nonzero;stroke:none"
             id="path160"
             inkscape:connector-curvature="0" /></g><g
           id="g162"
           transform="translate(466.3672,463.4624)"><path
             d="M 0,0 C 1.552,0 2.135,1.32 2.135,2.629 2.135,4.004 1.552,5.325 0,5.325 -1.551,5.325 -2.134,4.004 -2.134,2.629 -2.134,1.32 -1.551,0 0,0 m 0,6.777 c 2.432,0 3.861,-1.815 3.861,-4.148 0,-2.266 -1.429,-4.081 -3.861,-4.081 -2.432,0 -3.861,1.815 -3.861,4.081 0,2.333 1.429,4.148 3.861,4.148"
             style="fill:#231f20;fill-opacity:1;fill-rule:nonzero;stroke:none"
             id="path164"
             inkscape:connector-curvature="0" /></g><g
           id="g166"
           transform="translate(472.582,464.8047)"><path
             d="m 0,0 c 0,-1.045 0.814,-1.452 1.738,-1.452 0.606,0 1.53,0.176 1.53,0.979 0,0.847 -1.178,0.99 -2.332,1.298 -1.166,0.308 -2.344,0.759 -2.344,2.234 0,1.606 1.518,2.376 2.937,2.376 1.64,0 3.147,-0.715 3.147,-2.531 l -1.672,0 C 2.949,3.851 2.277,4.093 1.453,4.093 0.902,4.093 0.264,3.861 0.264,3.201 0.264,2.596 0.639,2.52 2.607,2.013 3.18,1.87 4.939,1.507 4.939,-0.275 c 0,-1.441 -1.132,-2.519 -3.267,-2.519 -1.738,0 -3.365,0.857 -3.344,2.794 L 0,0 Z"
             style="fill:#231f20;fill-opacity:1;fill-rule:nonzero;stroke:none"
             id="path168"
             inkscape:connector-curvature="0" /></g><g
           id="g170"
           transform="translate(417.9468,486.4355)"><path
             d="m 0,0 c 0,0 -46.75,-14.875 -46.75,-29.875 0,-13.375 44.121,-11.141 49.125,-11 29.667,0.833 70,11.875 70,11.875 0,0 -51,-18.542 -113.125,-19.125 -12,-0.113 -29.625,3.375 -29.625,11 C -70.375,-18.75 0,0 0,0"
             style="fill:#939598;fill-opacity:1;fill-rule:nonzero;stroke:none"
             id="path172"
             inkscape:connector-curvature="0" /></g></g><g
         id="g176"
         clip-path="url(#clipPath178)"><g
           id="g182"><g
             id="g184"><path
               d="m 349.25,452.427 c 0,-7.625 17.625,-11.113 29.625,-11 l 0,0 C 441,442.011 492,460.552 492,460.552 l 0,0 c 0,0 -40.334,-11.042 -70,-11.874 l 0,0 c -5.005,-0.14 -49.125,-2.375 -49.125,11 l 0,0 c 0,15 46.75,29.874 46.75,29.874 l 0,0 c 0,0 -70.375,-18.749 -70.375,-37.125"
               style="fill:url(#linearGradient186);stroke:none"
               id="path194"
               inkscape:connector-curvature="0" /></g></g></g><g
         id="g196"><g
           clip-path="url(#clipPath200)"
           id="g198"><g
             id="g204"><g
               id="g206"><path
                 inkscape:connector-curvature="0"
                 id="path214"
                 style="fill:url(#radialGradient208);stroke:none"
                 d="m 479.031,459.218 c 0,-3.32 2.691,-6.012 6.012,-6.012 l 0,0 c 3.32,0 6.011,2.692 6.011,6.012 l 0,0 c 0,3.32 -2.691,6.012 -6.011,6.012 l 0,0 c -3.321,0 -6.012,-2.692 -6.012,-6.012" /></g></g></g></g><g
         id="g216"><g
           clip-path="url(#clipPath220)"
           id="g218"><g
             transform="translate(479.0313,459.2178)"
             id="g224"><path
               inkscape:connector-curvature="0"
               id="path226"
               style="fill:none;stroke:#231f20;stroke-width:0.1;stroke-linecap:butt;stroke-linejoin:miter;stroke-miterlimit:10;stroke-dasharray:none;stroke-opacity:1"
               d="m 0,0 c 0,3.32 2.691,6.012 6.012,6.012 3.32,0 6.011,-2.692 6.011,-6.012 0,-3.32 -2.691,-6.012 -6.011,-6.012 C 2.691,-6.012 0,-3.32 0,0 Z" /></g></g></g></g><path
       style="fill:#ffffff"
       d="m 47.866424,29.239396 0,-4.823152 1.493472,0.03964 1.493472,0.03964 1.125238,3.315519 c 0.618881,1.823536 1.167501,3.316201 1.219155,3.317033 0.05165,8.38e-4 0.158035,-0.202745 0.2364,-0.452396 0.07837,-0.24965 0.560201,-1.758027 1.070745,-3.351949 l 0.928261,-2.898039 1.454049,0 1.454049,0 0,4.818427 0,4.818427 -0.90782,0 -0.907819,0 0,-3.421782 c 0,-1.881979 -0.04844,-3.421781 -0.10765,-3.421781 -0.05921,0 -0.640561,1.542149 -1.291897,3.426997 l -1.184248,3.426998 -0.818993,-0.04013 -0.818993,-0.04013 -1.170343,-3.339426 c -0.643688,-1.836685 -1.202165,-3.371249 -1.241058,-3.410143 -0.03889,-0.03889 -0.07072,1.479561 -0.07072,3.374343 l 0,3.445059 -0.977651,0 -0.977652,0 0,-4.823152 z"
       id="path3459"
       inkscape:connector-curvature="0"
       transform="matrix(0.8,0,0,-0.8,347.57179,489.552)" /><path
       style="fill:#ffffff"
       d="m 60.436233,29.244121 0,-4.818427 3.561446,0 3.561445,0 0,0.837987 0,0.837988 -2.583794,0 -2.583794,0 0,1.117316 0,1.117316 2.374298,0 2.374297,0 0,0.768155 0,0.768155 -2.374297,0 -2.374298,0 0,1.256981 0,1.256981 2.653627,0 2.653626,0 0,0.837987 0,0.837988 -3.631278,0 -3.631278,0 0,-4.818427 z"
       id="path3461"
       inkscape:connector-curvature="0"
       transform="matrix(0.8,0,0,-0.8,347.57179,489.552)" /><path
       style="fill:#ffffff"
       d="m 71.260235,34.14651 c -1.299128,-0.41086 -2.167342,-1.173731 -2.435732,-2.140197 -0.275572,-0.992328 -0.25666,-1.016385 0.79898,-1.016385 l 0.947042,0 0.20519,0.593574 c 0.294345,0.851479 1.11882,1.267597 2.33504,1.178509 1.328781,-0.09733 1.888713,-0.625715 1.654017,-1.56082 -0.126047,-0.502208 -0.614102,-0.763956 -2.257254,-1.210583 -1.975454,-0.536949 -2.658596,-0.878613 -3.104748,-1.552795 -0.465943,-0.704087 -0.499576,-1.735585 -0.08312,-2.549272 0.610347,-1.192526 2.414223,-1.889121 4.157338,-1.605422 1.547801,0.251911 2.474242,0.926514 2.861718,2.083804 0.283918,0.84799 0.26265,0.868502 -0.853616,0.823264 -0.9243,-0.03746 -1.016404,-0.06801 -1.056573,-0.350512 -0.0242,-0.170213 -0.233284,-0.468746 -0.464625,-0.663407 -0.353798,-0.297701 -0.561903,-0.353929 -1.309936,-0.353929 -1.100727,0 -1.64977,0.371066 -1.64977,1.114982 0,0.577423 0.255321,0.771921 1.478117,1.125998 0.518504,0.15014 1.382485,0.400431 1.919957,0.556201 1.610884,0.466866 2.377228,1.355173 2.37243,2.749999 -0.0044,1.280634 -1.107349,2.518474 -2.512535,2.819832 -0.92752,0.198918 -2.29939,0.17934 -3.001917,-0.04284 z"
       id="path3463"
       inkscape:connector-curvature="0"
       transform="matrix(0.8,0,0,-0.8,347.57179,489.552)" /><path
       style="fill:#ffffff"
       d="m 81.383735,32.267633 c -0.917354,-0.487482 -1.392306,-1.523774 -1.393687,-3.040869 -0.0018,-1.983118 0.962749,-3.165 2.583015,-3.165 0.802263,0 1.448668,0.284476 1.873433,0.824477 0.380247,0.483406 0.710361,1.611595 0.710361,2.427712 0,0.703026 -0.42735,1.764462 -0.608829,1.778562 -0.58556,-1.663386 -1.593791,-0.613112 -2.044797,0.543177 -0.03437,0.08812 0.204259,0.332957 0.453909,0.529712 0.184066,0.487756 0.658969,0.331183 -0.316424,0.359235 -0.484043,9.77e-4 -0.951194,-0.09456 -1.256981,-0.257056 z"
       id="path3465"
       inkscape:connector-curvature="0"
       transform="matrix(0.8,0,0,-0.8,347.57179,489.552)"
       sodipodi:nodetypes="csssscccccc" /><path
       style="fill:#ffffff"
       d="m 85.644017,34.41405 -0.699988,-0.609929 -0.836322,0.283635 c -1.059086,0.359185 -2.61444,0.302811 -3.587204,-0.130019 -3.010984,-1.339732 -3.693099,-5.97353 -1.24038,-8.42625 0.92606,-0.92606 1.788137,-1.270367 3.1947,-1.275938 1.19079,-0.0047 1.924001,0.19766 2.77384,0.765618 1.293184,0.864249 2.003162,2.385735 2.003162,4.292786 0,1.274772 -0.269656,2.265897 -0.825098,3.032662 l -0.408857,0.564411 0.547145,0.534273 c 0.30093,0.29385 0.545455,0.568655 0.543388,0.610677 -0.0021,0.04202 -0.174901,0.277013 -0.384077,0.522203 l -0.38032,0.445799 z m -2.171757,-2.007776 -0.395643,-0.371399 -0.41699,-0.416457 0.410696,-0.450787 0.42632,-0.446882 0.470639,0.387977 0.628182,0.539704 c 0.234882,-0.07478 0.687831,-1.470327 0.694944,-2.153022 0.01514,-1.453163 -0.484768,-2.610803 -1.393856,-3.22775 -0.418987,-0.284343 -0.776578,-0.434522 -1.61845,-0.35901 -1.204834,0.108068 -1.562087,0.456521 -2.027518,1.41606 -0.884963,1.824455 -0.261527,4.509168 1.194313,5.143092 0.2255,0.09819 0.818416,0.19957 1.08421,0.202024 0.265794,0.0025 0.385681,0.02452 0.617961,-0.02283 0.232281,-0.04735 0.439866,-0.149333 0.378682,-0.198092 z"
       id="path3467"
       inkscape:connector-curvature="0"
       sodipodi:nodetypes="ccssscssscscscccccccccssssszzsc"
       transform="matrix(0.8,0,0,-0.8,347.57179,489.552)" /><path
       style="fill:#ffffff"
       d="M 91.186559,34.083762 C 90.770182,33.935503 90.203555,33.585483 89.899864,33.288936 89.005411,32.415527 88.9278,31.990233 88.9278,27.96226 l 0,-3.536566 0.977651,0 0.977652,0 0.0079,3.317033 c 0.0086,3.612117 0.08364,4.077465 0.735597,4.560932 0.309078,0.229199 0.598878,0.292411 1.340586,0.292411 0.520447,0 1.100158,-0.08236 1.288248,-0.183023 0.717521,-0.384005 0.744644,-0.534517 0.79129,-4.390991 l 0.0435,-3.596362 1.051057,0 1.051057,0 -0.0485,3.596362 c -0.04446,3.297386 -0.07279,3.64861 -0.340798,4.224852 -0.646236,1.389498 -1.690578,1.983059 -3.615458,2.054879 -0.97005,0.03619 -1.42682,-0.01357 -2.001009,-0.218025 z"
       id="path3469"
       inkscape:connector-curvature="0"
       transform="matrix(0.8,0,0,-0.8,347.57179,489.552)" /><path
       style="fill:#ffffff"
       d="m 99.123311,29.244121 0,-4.818427 0.977649,0 0.97765,0 0,4.818427 0,4.818427 -0.97765,0 -0.977649,0 0,-4.818427 z"
       id="path3471"
       inkscape:connector-curvature="0"
       transform="matrix(0.8,0,0,-0.8,347.57179,489.552)" /><path
       style="fill:#ffffff"
       d="m 105.26855,30.082108 0,-3.980439 -1.46648,0 -1.46647,0 0,-0.837988 0,-0.837987 3.98044,0 3.98043,0 0,0.837987 0,0.837988 -1.46647,0 -1.46648,0 0,3.980439 0,3.98044 -1.04748,0 -1.04749,0 0,-3.98044 z"
       id="path3473"
       inkscape:connector-curvature="0"
       transform="matrix(0.8,0,0,-0.8,347.57179,489.552)" /><path
       style="fill:#ffffff"
       d="m 109.65566,33.824484 c 0.0442,-0.137919 0.85582,-2.293356 1.80362,-4.78986 l 1.72326,-4.539098 1.08668,0 1.08668,0 1.7833,4.789087 1.7833,4.789087 -1.0546,-0.04049 -1.05461,-0.04049 -0.33709,-1.012568 -0.33709,-1.012568 -1.91081,0 -1.91081,0 -0.3471,1.012568 -0.3471,1.012568 -1.024,0.04127 c -0.93156,0.03754 -1.01674,0.01863 -0.94363,-0.209497 z m 5.31275,-5.16589 c -0.6169,-1.739001 -0.71521,-1.964026 -0.80692,-1.846964 -0.0724,0.09247 -1.21236,3.398741 -1.21185,3.514891 2.5e-4,0.05761 0.59607,0.104748 1.32404,0.104748 l 1.32357,0 -0.62884,-1.772675 z"
       id="path3475"
       inkscape:connector-curvature="0"
       transform="matrix(0.8,0,0,-0.8,347.57179,489.552)" /><path
       style="fill:#ffffff"
       d="m 123.84394,29.244121 0,-4.818427 0.97765,0 0.97765,0 0,1.885471 0,1.885472 2.02513,0 2.02514,0 0,-1.885472 0,-1.885471 1.04748,0 1.04749,0 0,4.818427 0,4.818427 -1.04749,0 -1.04748,0 0,-2.094969 0,-2.094968 -2.02514,0 -2.02513,0 0,2.094968 0,2.094969 -0.97765,0 -0.97765,0 0,-4.818427 z"
       id="path3477"
       inkscape:connector-curvature="0"
       transform="matrix(0.8,0,0,-0.8,347.57179,489.552)" /><path
       style="fill:#ffffff"
       d="m 133.89978,29.238246 0,-4.824302 1.07063,0.04079 1.07062,0.04079 2.03691,3.264534 2.03691,3.264534 0.0375,-3.29945 0.0374,-3.29945 0.97513,0 0.97512,0 0,4.824302 0,4.824301 -1.07355,-0.04079 -1.07355,-0.04079 -1.96415,-3.17506 c -1.08029,-1.746284 -2.01129,-3.176099 -2.06891,-3.177369 -0.0576,-0.0013 -0.10474,1.443221 -0.10474,3.209977 l 0,3.212285 -0.97766,0 -0.97765,0 0,-4.824302 z"
       id="path3479"
       inkscape:connector-curvature="0"
       transform="matrix(0.8,0,0,-0.8,347.57179,489.552)" /><path
       style="fill:#ffffff"
       d=""
       id="path3481"
       inkscape:connector-curvature="0"
       transform="matrix(0.8,0,0,-0.8,347.57179,489.552)" /><path
       style="fill:#ffffff"
       d=""
       id="path3483"
       inkscape:connector-curvature="0"
       transform="matrix(0.8,0,0,-0.8,347.57179,489.552)" /><path
       style="fill:#ffffff"
       d="m 146.88934,34.117024 c -0.87423,-0.317155 -1.69513,-0.911632 -2.13168,-1.543716 -1.90721,-2.76148 -1.05342,-6.685861 1.72595,-7.933169 1.20882,-0.542486 2.80665,-0.54552 4.00528,-0.0076 1.47803,0.663298 2.42201,1.989763 2.67193,3.754533 0.33649,2.376027 -0.57263,4.430346 -2.39018,5.401052 -0.76562,0.408893 -1.03271,0.475216 -2.06642,0.513114 -0.84054,0.03082 -1.37042,-0.02297 -1.81488,-0.184214 z m 2.57827,-1.572195 c 0.81956,-0.497619 1.53063,-0.861965 1.70412,-2.719837 0.0867,-0.928936 -0.0797,-2.138724 -0.57686,-2.871987 -0.49715,-0.733262 -1.29007,-1.024913 -2.03724,-1.025395 -1.49434,-9.64e-4 -1.96222,0.639832 -2.45247,1.570704 -0.49025,0.930872 -0.34117,2.982474 0.0391,3.70111 0.38027,0.718636 0.79222,1.055399 1.42823,1.33126 0.6614,0.178613 1.22856,0.172421 1.89512,0.01414 z"
       id="path3485"
       inkscape:connector-curvature="0"
       transform="matrix(0.8,0,0,-0.8,347.57179,489.552)"
       sodipodi:nodetypes="sssssssscszszzcc" /><path
       style="fill:#ffffff"
       d="m 157.01426,34.216626 c -0.7268,-0.194863 -1.38383,-0.523984 -1.76888,-0.886076 -0.49385,-0.464393 -0.95457,-1.389188 -0.95457,-1.916065 l 0,-0.424557 0.97765,0 c 0.94146,0 0.97765,0.01253 0.97765,0.338445 0,1.132175 2.0485,1.886078 3.34912,1.232564 1.1223,-0.563918 1.06633,-1.599083 -0.11387,-2.106076 -0.3583,-0.15392 -1.18022,-0.414701 -1.8265,-0.579513 -1.81359,-0.462504 -2.5926,-0.956689 -2.93576,-1.862384 -0.33727,-0.890169 -0.0164,-2.181962 0.70725,-2.847209 1.39591,-1.283263 4.35623,-1.247032 5.76014,0.0705 0.45718,0.429056 0.78587,1.110411 0.78587,1.629085 0,0.344127 -0.0259,0.353647 -0.9602,0.353647 -0.95511,0 -0.96064,-0.0022 -1.04397,-0.418913 -0.12568,-0.628384 -0.79477,-0.976567 -1.87787,-0.97721 -0.74771,-4.47e-4 -0.93055,0.05077 -1.22207,0.34229 -0.41978,0.419782 -0.44941,1.053737 -0.0655,1.401186 0.15253,0.138039 1.02017,0.454502 1.92809,0.70325 0.90793,0.248748 1.90847,0.583737 2.22343,0.74442 2.04686,1.044228 1.84219,3.870089 -0.35335,4.878666 -0.62269,0.286047 -1.0488,0.372189 -1.98053,0.400376 -0.65294,0.01975 -1.3757,-0.01464 -1.60615,-0.07642 z"
       id="path3487"
       inkscape:connector-curvature="0"
       transform="matrix(0.8,0,0,-0.8,347.57179,489.552)" /><path
       style="fill:#ffffff"
       d="m 47.44743,78.266375 0,-3.282116 1.815639,0 1.815639,0 0,0.488826 0,0.488825 -1.187148,0 -1.187149,0 0,0.837988 0,0.837987 1.117316,0 1.117317,0 0,0.488826 0,0.488826 -1.117317,0 -1.117316,0 0,0.977652 0,0.977651 1.187149,0 1.187148,0 0,0.488826 0,0.488826 -1.815639,0 -1.815639,0 0,-3.282117 z"
       id="path3489"
       inkscape:connector-curvature="0"
       transform="matrix(0.8,0,0,-0.8,347.57179,489.552)" /><path
       style="fill:#ffffff"
       d="m 55.312804,81.949572 c -0.239644,-0.239644 -0.482469,-0.301442 -1.253102,-0.318911 -1.790952,-0.0406 -2.216404,-0.701932 -2.206457,-3.429779 0.0055,-1.51344 0.04708,-1.827826 0.307279,-2.324501 0.734666,-1.402336 2.998613,-1.392801 3.727027,0.0157 0.249026,0.48153 0.288644,0.809326 0.286962,2.374297 -0.0015,1.425481 -0.05183,1.907399 -0.23409,2.242653 -0.224434,0.412837 -0.220808,0.441493 0.109234,0.863208 l 0.341374,0.436195 -0.31294,0.219192 c -0.397846,0.278662 -0.409793,0.277443 -0.765287,-0.07805 z m -0.887655,-1.236119 c 0.140501,-0.07519 0.324916,-0.335969 0.409812,-0.579499 0.22577,-0.647645 0.196943,-3.241099 -0.04239,-3.81391 -0.344855,-0.825353 -1.216955,-0.825353 -1.56181,0 -0.234961,0.562342 -0.270285,3.196527 -0.05079,3.787794 0.246601,0.664294 0.712311,0.8908 1.245184,0.605615 z"
       id="path3491"
       inkscape:connector-curvature="0"
       transform="matrix(0.8,0,0,-0.8,347.57179,489.552)" /><path
       style="fill:#ffffff"
       d="m 58.061936,81.443527 c -0.867721,-0.433475 -0.977189,-0.863599 -0.977435,-3.840558 l -2.17e-4,-2.61871 0.62849,0 0.628491,0 0,2.653626 c 0,2.467407 0.0196,2.673228 0.279329,2.932955 0.286368,0.286368 0.649479,0.354294 0.921827,0.172442 0.399076,-0.26647 0.474818,-0.782651 0.474818,-3.23588 l 0,-2.523143 0.641343,0 0.641343,0 -0.04777,2.713475 c -0.04369,2.481943 -0.07245,2.747098 -0.337025,3.107536 -0.384255,0.523478 -1.118803,0.882453 -1.805711,0.882453 -0.307262,0 -0.77863,-0.109889 -1.047484,-0.244196 z"
       id="path3493"
       inkscape:connector-curvature="0"
       transform="matrix(0.8,0,0,-0.8,347.57179,489.552)" /><path
       style="fill:#ffffff"
       d="m 62.251872,78.266375 0,-3.282116 0.62849,0 0.628491,0 0,3.282116 0,3.282117 -0.628491,0 -0.62849,0 0,-3.282117 z"
       id="path3495"
       inkscape:connector-curvature="0"
       transform="matrix(0.8,0,0,-0.8,347.57179,489.552)" /><path
       style="fill:#ffffff"
       d="m 64.626169,78.266375 0,-3.282116 1.403581,0 c 0.95559,0 1.52909,0.0649 1.796806,0.203344 0.838868,0.433796 1.126679,1.997303 0.530803,2.883538 -0.357706,0.532009 -0.984549,0.803941 -1.880635,0.815842 l -0.593574,0.0079 0,1.326813 0,1.326813 -0.628491,0 -0.62849,0 0,-3.282117 z m 2.61381,-0.576088 c 0.09871,-0.135 0.179481,-0.512699 0.179481,-0.839332 0,-0.697194 -0.34758,-1.028709 -1.07856,-1.028709 l -0.45775,0 0,1.135706 0,1.135706 0.588674,-0.07896 c 0.325381,-0.04364 0.668949,-0.188741 0.768155,-0.324413 z"
       id="path3497"
       inkscape:connector-curvature="0"
       transform="matrix(0.8,0,0,-0.8,347.57179,489.552)" /><path
       style="fill:#ffffff"
       d="m 68.57017,81.373912 c 0.0348,-0.09602 0.429969,-1.572972 0.878145,-3.282117 l 0.814868,-3.107536 0.791419,0 0.79142,0 0.796882,3.037704 c 0.438284,1.670737 0.829222,3.147689 0.86875,3.282116 0.06093,0.207212 -0.02379,0.244413 -0.556621,0.244413 -0.66788,0 -0.667701,1.96e-4 -0.857481,-0.942735 l -0.09136,-0.45391 -0.955458,0 -0.955458,0 -0.09136,0.45391 c -0.189959,0.943825 -0.188962,0.942735 -0.863012,0.942735 -0.447855,0 -0.615441,-0.05126 -0.570742,-0.17458 z m 3.180273,-2.304465 c 0.004,-0.302228 -0.619659,-2.967872 -0.694356,-2.967872 -0.07367,0 -0.246081,0.70869 -0.671077,2.758375 -0.06084,0.293429 -0.01782,0.314245 0.649446,0.314245 0.393033,0 0.715227,-0.04714 0.715987,-0.104748 z"
       id="path3499"
       inkscape:connector-curvature="0"
       transform="matrix(0.8,0,0,-0.8,347.57179,489.552)" /><path
       style="fill:#ffffff"
       d="m 74.263023,78.259994 0,-3.288498 0.936706,0.0413 0.936707,0.0413 0.319715,1.606142 c 0.560469,2.815609 0.623399,3.095938 0.681871,3.037466 0.03152,-0.03152 0.246292,-0.963526 0.477275,-2.071128 0.230983,-1.107602 0.452299,-2.155232 0.491812,-2.328067 0.06542,-0.286169 0.152714,-0.314245 0.977001,-0.314245 l 0.905159,0 0,3.282116 0,3.282117 -0.555643,0 -0.555642,0 -0.03793,-2.688542 -0.03793,-2.688543 -0.532218,2.44413 c -0.696409,3.198154 -0.593176,2.932955 -1.141703,2.932955 l -0.467949,0 -0.305318,-1.361729 C 76.187007,79.437812 75.905875,78.227968 75.730195,77.49822 l -0.319419,-1.326813 -0.01522,2.688543 -0.01522,2.688542 -0.558658,0 -0.558658,0 0,-3.288498 z"
       id="path3501"
       inkscape:connector-curvature="0"
       transform="matrix(0.8,0,0,-0.8,347.57179,489.552)" /><path
       style="fill:#ffffff"
       d="m 81.24625,78.266375 0,-3.282116 0.558658,0 0.558658,0 0,3.282116 0,3.282117 -0.558658,0 -0.558658,0 0,-3.282117 z"
       id="path3503"
       inkscape:connector-curvature="0"
       transform="matrix(0.8,0,0,-0.8,347.57179,489.552)" /><path
       style="fill:#ffffff"
       d="m 83.620547,78.266375 0,-3.282116 1.745807,0 1.745806,0 0,0.488826 0,0.488825 -1.187148,0 -1.187149,0 0,0.837988 0,0.837987 1.117317,0 1.117316,0 0,0.488826 0,0.488826 -1.117316,0 -1.117317,0 0,0.977652 0,0.977651 1.256981,0 1.256981,0 0,0.488826 0,0.488826 -1.815639,0 -1.815639,0 0,-3.282117 z"
       id="path3505"
       inkscape:connector-curvature="0"
       transform="matrix(0.8,0,0,-0.8,347.57179,489.552)" /><path
       style="fill:#ffffff"
       d="m 88.089812,78.259077 0,-3.289416 0.726419,0.04221 0.72642,0.04221 0.7809,2.194004 c 0.429495,1.206702 0.825371,2.238473 0.879723,2.292826 0.05435,0.05435 0.09882,-0.948662 0.09882,-2.22892 l 0,-2.327742 0.558658,0 0.558658,0 0,3.282116 0,3.282117 -0.73716,0 -0.737161,0 -0.735398,-2.13148 c -0.404468,-1.172314 -0.794548,-2.225036 -0.866843,-2.339381 -0.08524,-0.134818 -0.132197,0.614454 -0.133584,2.13148 l -0.0021,2.339381 -0.558659,0 -0.558658,0 0,-3.289415 z"
       id="path3507"
       inkscape:connector-curvature="0"
       transform="matrix(0.8,0,0,-0.8,347.57179,489.552)" /><path
       style="fill:#ffffff"
       d="m 94.514381,78.755201 0,-2.793291 -0.698322,0 -0.698323,0 0,-0.488825 0,-0.488826 2.094968,0 2.094968,0 0,0.488826 0,0.488825 -0.768155,0 -0.768155,0 0,2.793291 0,2.793291 -0.62849,0 -0.628491,0 0,-2.793291 z"
       id="path3509"
       inkscape:connector-curvature="0"
       transform="matrix(0.8,0,0,-0.8,347.57179,489.552)" /><path
       style="fill:#ffffff"
       d="m 99.053479,81.492275 c -0.976308,-0.430952 -1.230103,-1.195358 -1.164667,-3.507859 0.05141,-1.816891 0.194325,-2.284925 0.84463,-2.766129 0.533488,-0.394764 1.713028,-0.463817 2.340418,-0.137014 0.88789,0.462485 1.05224,0.959973 1.05224,3.185102 0,1.712878 -0.0352,2.015911 -0.28408,2.44413 -0.50598,0.870654 -1.77879,1.227486 -2.788541,0.78177 z m 1.522291,-0.964554 c 0.26199,-0.261982 0.33894,-0.530432 0.4104,-1.431562 0.16683,-2.104011 -0.1956,-3.416893 -0.94177,-3.411439 -0.759416,0.0056 -0.976848,0.560262 -0.984568,2.511823 -0.0082,2.078587 0.177624,2.562661 1.012568,2.637425 0.0995,0.0089 0.32603,-0.1289 0.50337,-0.306247 z"
       id="path3511"
       inkscape:connector-curvature="0"
       transform="matrix(0.8,0,0,-0.8,347.57179,489.552)" /><path
       style="fill:#ffffff"
       d=""
       id="path3513"
       inkscape:connector-curvature="0"
       transform="matrix(0.8,0,0,-0.8,347.57179,489.552)" /><path
       style="fill:#ffffff"
       d="m 110.29647,78.278732 0,-3.294473 1.43157,5.22e-4 c 1.62915,5.94e-4 2.14205,0.201241 2.57122,1.00587 0.36499,0.68431 0.41659,3.288401 0.0836,4.219664 -0.38478,1.076137 -0.74117,1.2593 -2.55984,1.315618 l -1.52657,0.04727 0,-3.294474 z m 2.34498,2.342282 c 0.54819,-0.146848 0.72764,-0.727553 0.72764,-2.354639 0,-2.034758 -0.23536,-2.436282 -1.43156,-2.442222 l -0.38407,-0.0019 0,2.444129 0,2.44413 0.38407,-0.0019 c 0.21125,-0.001 0.52801,-0.04046 0.70392,-0.08759 z"
       id="path3515"
       inkscape:connector-curvature="0"
       transform="matrix(0.8,0,0,-0.8,347.57179,489.552)" /><path
       style="fill:#ffffff"
       d="m 103.94174,81.492275 c -0.60732,-0.268076 -0.921,-0.681888 -1.00788,-1.329588 l -0.0764,-0.569498 0.64688,0 c 0.5969,0 0.64688,0.02698 0.64688,0.349161 0,0.192039 0.13225,0.481406 0.29388,0.643039 0.5134,0.513397 1.52176,0.109801 1.52176,-0.609083 0,-0.518364 -0.31418,-0.825049 -1.31026,-1.278975 -1.35712,-0.618461 -1.66769,-1.021425 -1.59289,-2.06678 0.0638,-0.891695 0.3253,-1.289801 1.04811,-1.595736 1.27873,-0.541229 2.8327,0.13764 2.8327,1.237501 0,0.357659 -0.0424,0.387917 -0.54352,0.387917 -0.46522,0 -0.55632,-0.05098 -0.63235,-0.353911 -0.19261,-0.76744 -1.36277,-0.775603 -1.50902,-0.01053 -0.11745,0.614388 0.18739,0.965768 1.30289,1.501778 0.58243,0.279868 1.1945,0.68115 1.36014,0.891739 0.35661,0.453352 0.39577,1.245141 0.0969,1.960321 -0.36273,0.868159 -2.00283,1.317175 -3.07787,0.842642 z"
       id="path3517"
       inkscape:connector-curvature="0"
       transform="matrix(0.8,0,0,-0.8,347.57179,489.552)" /><path
       style="fill:#ffffff"
       d="m 115.60373,78.266375 0,-3.282116 1.81564,0 1.81564,0 0,0.488826 0,0.488825 -1.18715,0 -1.18715,0 0,0.837988 0,0.837987 1.11731,0 1.11732,0 0,0.488826 0,0.488826 -1.11732,0 -1.11731,0 0,0.977652 0,0.977651 1.25698,0 1.25698,0 0,0.488826 0,0.488826 -1.88547,0 -1.88547,0 0,-3.282117 z"
       id="path3519"
       inkscape:connector-curvature="0"
       transform="matrix(0.8,0,0,-0.8,347.57179,489.552)" /><path
       style="fill:#ffffff"
       d="m 123.21544,81.500993 c -0.61176,-0.282769 -0.92145,-0.693989 -1.00787,-1.338306 l -0.0764,-0.569498 0.64688,0 c 0.62453,0 0.64688,0.01436 0.64688,0.415774 0,0.904836 1.19796,1.091026 1.66508,0.258791 0.3448,-0.614292 0.0465,-1.020739 -1.14896,-1.565526 -1.2801,-0.583361 -1.63343,-1.001829 -1.63343,-1.934532 0,-0.884194 0.32568,-1.436444 1.00818,-1.709525 1.37951,-0.551974 2.90242,0.08509 2.90242,1.214145 0,0.357659 -0.0424,0.387917 -0.54351,0.387917 -0.46158,0 -0.55658,-0.05203 -0.63014,-0.34513 -0.18136,-0.72259 -1.22597,-0.81178 -1.48636,-0.126906 -0.23637,0.621703 0.0943,1.041925 1.26337,1.605455 1.26704,0.610766 1.54831,0.903306 1.63859,1.704265 0.0881,0.781968 -0.26563,1.56443 -0.84209,1.862528 -0.58907,0.304625 -1.88381,0.380363 -2.40265,0.140548 z"
       id="path3521"
       inkscape:connector-curvature="0"
       transform="matrix(0.8,0,0,-0.8,347.57179,489.552)" /><path
       style="fill:#ffffff"
       d="m 127.33555,78.266375 0,-3.282116 1.81564,0 1.81564,0 0,0.488826 0,0.488825 -1.25698,0 -1.25698,0 0,0.837988 0,0.837987 1.18714,0 1.18715,0 0,0.483178 0,0.483177 -1.15223,0.04057 -1.15223,0.04056 -0.0413,0.942736 -0.0413,0.942735 1.26336,0 1.26337,0 0,0.488826 0,0.488826 -1.81564,0 -1.81564,0 0,-3.282117 z"
       id="path3523"
       inkscape:connector-curvature="0"
       transform="matrix(0.8,0,0,-0.8,347.57179,489.552)" /><path
       style="fill:#ffffff"
       d="m 132.74931,81.469528 c -0.69215,-0.375556 -0.86211,-0.919709 -0.9193,-2.943373 -0.0453,-1.603344 -0.0165,-1.915042 0.22774,-2.467267 0.33251,-0.751707 0.78998,-1.084813 1.61799,-1.178142 1.20208,-0.135492 1.93439,0.344225 2.17864,1.427173 l 0.11095,0.491979 -0.61378,0 c -0.49937,0 -0.61378,-0.04716 -0.61378,-0.252994 0,-0.371 -0.53757,-0.887376 -0.87181,-0.837428 -0.15802,0.02362 -0.41625,0.216268 -0.57383,0.428116 -0.24386,0.327834 -0.28753,0.598141 -0.29334,1.815639 -0.009,1.795931 0.11811,2.416097 0.55152,2.700081 0.65587,0.42974 1.32712,-0.208924 1.32712,-1.262684 0,-0.473476 -0.022,-0.495762 -0.48882,-0.495762 -0.45003,0 -0.48883,-0.03325 -0.48883,-0.418994 l 0,-0.418993 1.04749,0 1.04748,0 0,1.745806 0,1.745807 -0.41899,0 c -0.32589,0 -0.419,-0.06207 -0.419,-0.279329 0,-0.153631 -0.0628,-0.279329 -0.13966,-0.279329 -0.0768,0 -0.13967,0.06123 -0.13967,0.136078 0,0.221438 -0.78772,0.562686 -1.28496,0.556653 -0.25346,-0.0031 -0.63289,-0.09894 -0.84316,-0.213037 z"
       id="path3525"
       inkscape:connector-curvature="0"
       transform="matrix(0.8,0,0,-0.8,347.57179,489.552)" /><path
       style="fill:#ffffff"
       d="m 138.01989,81.500015 c -0.9493,-0.436564 -0.9732,-0.522454 -1.02056,-3.666948 l -0.0429,-2.848808 0.55356,0 0.55356,0 0.048,2.6661 c 0.0469,2.606068 0.0554,2.672108 0.37772,2.932955 0.414,0.335067 0.60249,0.335085 1.01654,9.8e-5 0.32245,-0.260882 0.33072,-0.325477 0.37551,-2.932955 l 0.0458,-2.666198 0.54778,0 0.54777,0 -0.002,2.688542 c -0.002,2.884803 -0.0534,3.141937 -0.72539,3.64076 -0.47668,0.353865 -1.69434,0.453646 -2.27534,0.186454 z"
       id="path3527"
       inkscape:connector-curvature="0"
       transform="matrix(0.8,0,0,-0.8,347.57179,489.552)" /><path
       style="fill:#ffffff"
       d="m 142.00033,78.254679 0,-3.293814 1.68776,0.04661 1.68776,0.04661 0.40721,0.456113 c 0.55798,0.624995 0.57817,1.623736 0.0456,2.25663 -0.19887,0.23634 -0.46598,0.433729 -0.59358,0.438641 -0.13427,0.0052 -0.0401,0.104422 0.22356,0.235618 0.52554,0.261506 0.67913,0.69803 0.76163,2.164664 l 0.053,0.942735 -0.58525,0 c -0.70219,0 -0.7548,-0.09664 -0.7548,-1.386422 0,-1.136349 -0.21024,-1.406869 -1.0934,-1.406869 l -0.58257,0 0,1.396646 0,1.396645 -0.62849,0 -0.62849,0 0,-3.293813 z m 2.62255,-0.554881 c 0.24054,-0.168486 0.3104,-0.355298 0.3104,-0.830068 0,-0.735869 -0.34163,-1.047484 -1.14839,-1.047484 l -0.52758,0 0,1.047484 0,1.047484 0.52758,0 c 0.29017,0 0.66726,-0.09784 0.83799,-0.217416 z"
       id="path3529"
       inkscape:connector-curvature="0"
       transform="matrix(0.8,0,0,-0.8,347.57179,489.552)" /><path
       style="fill:#ffffff"
       d="m 147.30758,78.266375 0,-3.282116 0.62849,0 0.62849,0 0,3.282116 0,3.282117 -0.62849,0 -0.62849,0 0,-3.282117 z"
       id="path3531"
       inkscape:connector-curvature="0"
       transform="matrix(0.8,0,0,-0.8,347.57179,489.552)" /><path
       style="fill:#ffffff"
       d="m 149.82154,78.266375 0,-3.282116 1.34062,0 c 1.54674,0 2.09212,0.190441 2.50629,0.87516 0.23535,0.389094 0.27319,0.712813 0.27319,2.337124 0,1.642656 -0.0366,1.948424 -0.28408,2.374297 -0.43569,0.749708 -1.02777,0.97718 -2.54412,0.977435 l -1.2919,2.17e-4 0,-3.282117 z m 2.50497,2.199717 c 0.69183,-0.561255 0.69054,-3.834574 -0.002,-4.399433 -0.17101,-0.139532 -0.53264,-0.244413 -0.84274,-0.244413 l -0.54318,0 0,2.444129 0,2.44413 0.54318,0 c 0.30944,0 0.67284,-0.105178 0.84447,-0.244413 z"
       id="path3533"
       inkscape:connector-curvature="0"
       transform="matrix(0.8,0,0,-0.8,347.57179,489.552)" /><path
       style="fill:#ffffff"
       d="m 154.93161,79.216391 c 0.34242,-1.290664 0.72756,-2.770892 0.85587,-3.289397 l 0.2333,-0.942735 0.81099,0 c 0.44604,0 0.81098,0.02439 0.81098,0.05421 0,0.02981 0.3771,1.472058 0.83799,3.204985 0.4609,1.732929 0.83799,3.185488 0.83799,3.22791 0,0.04242 -0.27783,0.07713 -0.61739,0.07713 -0.5847,0 -0.62224,-0.02404 -0.70875,-0.45391 -0.19698,-0.978679 -0.15191,-0.942735 -1.18213,-0.942735 l -0.95313,0 -0.12054,0.663406 -0.12055,0.663407 -0.6536,0.0422 -0.6536,0.0422 0.62257,-2.346661 z m 2.5707,-0.286609 c -4.3e-4,-0.134427 -0.0587,-0.464385 -0.12944,-0.733239 -0.0708,-0.268854 -0.20196,-0.856927 -0.29155,-1.306828 -0.0896,-0.449901 -0.21365,-0.764147 -0.2757,-0.698323 -0.062,0.06582 -0.21102,0.602395 -0.33106,1.192379 -0.12004,0.589985 -0.25879,1.234188 -0.30833,1.431562 -0.0879,0.350294 -0.073,0.358862 0.6234,0.358862 0.58667,0 0.71332,-0.04343 0.71268,-0.244413 z"
       id="path3535"
       inkscape:connector-curvature="0"
       transform="matrix(0.8,0,0,-0.8,347.57179,489.552)" /><path
       style="fill:#ffffff"
       d="m 160.01705,78.266375 0,-3.282116 1.36173,2.17e-4 c 2.44789,3.9e-4 2.90095,0.514254 2.89357,3.281899 -0.007,2.754504 -0.4759,3.282117 -2.91468,3.282117 l -1.34062,0 0,-3.282117 z m 2.4179,2.314439 c 0.19772,-0.07517 0.40703,-0.318778 0.49792,-0.5795 0.19788,-0.567638 0.20473,-2.882577 0.0102,-3.440653 -0.16218,-0.465206 -0.62711,-0.738415 -1.25661,-0.738415 l -0.41242,0 0,2.444129 0,2.44413 0.4099,0 c 0.22545,0 0.56341,-0.05836 0.75102,-0.129691 z"
       id="path3537"
       inkscape:connector-curvature="0"
       transform="matrix(0.8,0,0,-0.8,347.57179,489.552)" /><path
       style="fill:#ffffff"
       d="m 168.41001,81.505693 c -0.57558,-0.201679 -0.93712,-0.68546 -1.03784,-1.388762 l -0.075,-0.523742 0.59083,0 c 0.54505,0 0.60118,0.03493 0.72446,0.450875 0.0767,0.258665 0.29736,0.541479 0.5177,0.663407 0.34408,0.190397 0.42408,0.190256 0.76816,-0.0014 0.29095,-0.162023 0.3944,-0.336761 0.42667,-0.720643 0.0525,-0.624937 -0.23832,-0.930033 -1.2248,-1.284765 -1.38163,-0.496824 -1.94369,-1.472022 -1.52719,-2.64971 0.24617,-0.696063 0.75551,-1.077598 1.55956,-1.168226 1.16129,-0.130894 2.0996,0.415979 2.28246,1.330266 l 0.0894,0.447195 -0.62849,0 c -0.58534,0 -0.63419,-0.02851 -0.71154,-0.415269 -0.10608,-0.530381 -0.63478,-0.696119 -1.14796,-0.359867 -0.29282,0.191862 -0.34846,0.324855 -0.31323,0.748635 0.0412,0.49577 0.0879,0.537828 1.22999,1.108209 1.50475,0.751495 1.67598,0.955384 1.67598,1.995669 0,0.667581 -0.0636,0.887412 -0.35814,1.237422 -0.55885,0.664158 -1.79899,0.895795 -2.84106,0.530661 z"
       id="path3539"
       inkscape:connector-curvature="0"
       transform="matrix(0.8,0,0,-0.8,347.57179,489.552)" /><path
       style="fill:#ffffff"
       d="m 172.4472,80.85017 0,-0.698323 0.55865,0 0.55866,0 0,0.698323 0,0.698322 -0.55866,0 -0.55865,0 0,-0.698322 z"
       id="path3541"
       inkscape:connector-curvature="0"
       transform="matrix(0.8,0,0,-0.8,347.57179,489.552)" /><path
       style="fill:#ffffff"
       d="m 174.30033,81.372896 c 0.0406,-0.105812 0.44057,-1.586542 0.88882,-3.290511 l 0.81498,-3.098126 0.80533,0 c 0.44293,0 0.80532,0.03279 0.80532,0.07286 0,0.04007 0.3771,1.489392 0.83799,3.220714 0.46089,1.731322 0.83799,3.17549 0.83799,3.209261 0,0.03377 -0.27655,0.0614 -0.61456,0.0614 l -0.61456,0 -0.16753,-0.698322 -0.16752,-0.698323 -0.94861,0 -0.94862,0 -0.12054,0.663406 -0.12055,0.663407 -0.68088,0.04331 c -0.53274,0.03389 -0.66482,0.0015 -0.60706,-0.149074 z m 3.17479,-2.33305 c 0,-0.342416 -0.60747,-2.938271 -0.6876,-2.938271 -0.0498,0 -0.20731,0.577658 -0.35002,1.283685 -0.14271,0.706027 -0.28921,1.397366 -0.32554,1.53631 -0.0574,0.219416 0.0279,0.252625 0.64855,0.252625 0.39303,0 0.71461,-0.06046 0.71461,-0.134349 z"
       id="path3543"
       inkscape:connector-curvature="0"
       transform="matrix(0.8,0,0,-0.8,347.57179,489.552)" /><path
       style="fill:#000000;fill-opacity:0"
       d="m 148.26771,32.601677 c -0.37241,-0.0332 -0.66103,-0.108422 -0.94141,-0.24537 -0.8234,-0.402181 -1.33908,-1.277502 -1.46809,-2.491945 -0.0542,-0.510656 -0.0263,-1.111335 0.0744,-1.601563 0.26471,-1.287899 0.98724,-2.082285 2.05694,-2.261514 0.18677,-0.03129 0.2801,-0.03839 0.50468,-0.03839 0.35339,0 0.61581,0.04049 0.90514,0.139643 0.33374,0.114377 0.60462,0.285124 0.86053,0.542417 0.15377,0.154603 0.25672,0.287657 0.37529,0.485036 0.34058,0.566958 0.52307,1.331873 0.5231,2.192492 2e-5,0.726953 -0.13622,1.371973 -0.40324,1.90907 -0.14485,0.291367 -0.30796,0.518063 -0.52008,0.722833 -0.36304,0.350452 -0.80112,0.555655 -1.34334,0.629244 -0.0939,0.01274 -0.17115,0.01683 -0.35443,0.01874 -0.12891,0.0013 -0.2502,0.001 -0.26953,-6.88e-4 l 0,0 z"
       id="path3484"
       inkscape:connector-curvature="0"
       transform="matrix(0.8,0,0,-0.8,347.57179,489.552)" /><path
       style="fill:#000000;fill-opacity:0"
       d="m 148.26771,32.601677 c -0.37241,-0.0332 -0.66103,-0.108422 -0.94141,-0.24537 -0.8234,-0.402181 -1.33908,-1.277502 -1.46809,-2.491945 -0.0542,-0.510656 -0.0263,-1.111335 0.0744,-1.601563 0.26471,-1.287899 0.98724,-2.082285 2.05694,-2.261514 0.18677,-0.03129 0.2801,-0.03839 0.50468,-0.03839 0.35339,0 0.61581,0.04049 0.90514,0.139643 0.33374,0.114377 0.60462,0.285124 0.86053,0.542417 0.15377,0.154603 0.25672,0.287657 0.37529,0.485036 0.34058,0.566958 0.52307,1.331873 0.5231,2.192492 2e-5,0.726953 -0.13622,1.371973 -0.40324,1.90907 -0.14485,0.291367 -0.30796,0.518063 -0.52008,0.722833 -0.36304,0.350452 -0.80112,0.555655 -1.34334,0.629244 -0.0939,0.01274 -0.17115,0.01683 -0.35443,0.01874 -0.12891,0.0013 -0.2502,0.001 -0.26953,-6.88e-4 l 0,0 z"
       id="path3486"
       inkscape:connector-curvature="0"
       transform="matrix(0.8,0,0,-0.8,347.57179,489.552)" /><path
       style="fill:#231f20;fill-opacity:1"
       d="m 148.26771,32.601677 c -0.37241,-0.0332 -0.66103,-0.108422 -0.94141,-0.24537 -0.8234,-0.402181 -1.33908,-1.277502 -1.46809,-2.491945 -0.0542,-0.510656 -0.0263,-1.111335 0.0744,-1.601563 0.26471,-1.287899 0.98724,-2.082285 2.05694,-2.261514 0.18677,-0.03129 0.2801,-0.03839 0.50468,-0.03839 0.35339,0 0.61581,0.04049 0.90514,0.139643 0.33374,0.114377 0.60462,0.285124 0.86053,0.542417 0.15377,0.154603 0.25672,0.287657 0.37529,0.485036 0.34058,0.566958 0.52307,1.331873 0.5231,2.192492 2e-5,0.726953 -0.13622,1.371973 -0.40324,1.90907 -0.14485,0.291367 -0.30796,0.518063 -0.52008,0.722833 -0.36304,0.350452 -0.80112,0.555655 -1.34334,0.629244 -0.0939,0.01274 -0.17115,0.01683 -0.35443,0.01874 -0.12891,0.0013 -0.2502,0.001 -0.26953,-6.88e-4 l 0,0 z"
       id="path3488"
       inkscape:connector-curvature="0"
       transform="matrix(0.8,0,0,-0.8,347.57179,489.552)" /><path
       style="fill:#231f20;fill-opacity:1"
       d="m 82.245133,32.5914 c -0.568055,-0.05986 -1.033642,-0.266032 -1.41428,-0.626267 -0.507242,-0.480053 -0.812058,-1.185393 -0.91775,-2.123661 -0.02415,-0.214379 -0.02386,-0.81665 5.1e-4,-1.054688 0.126976,-1.240404 0.624469,-2.13054 1.422481,-2.545165 0.363511,-0.18887 0.744256,-0.275147 1.214237,-0.275147 1.030451,0 1.795629,0.466239 2.243787,1.367187 0.193464,0.388927 0.313906,0.816523 0.381075,1.352906 0.03203,0.255803 0.03688,0.973249 0.0082,1.209594 -0.06425,0.528858 -0.163881,0.902092 -0.338624,1.268527 -0.07891,0.165479 -0.215669,0.395536 -0.235124,0.395536 -0.0049,0 -0.255196,-0.225416 -0.556138,-0.500924 -0.300943,-0.275508 -0.552404,-0.49875 -0.558804,-0.496094 -0.0245,0.01017 -1.00272,1.064258 -0.998429,1.075864 0.0025,0.0067 0.18382,0.175124 0.40296,0.374214 0.219141,0.19909 0.422281,0.38537 0.451423,0.413956 l 0.05298,0.05197 -0.06616,0.03375 c -0.03639,0.01856 -0.116479,0.04385 -0.177985,0.0562 -0.136277,0.02735 -0.729008,0.04177 -0.914331,0.02224 z"
       id="path3492"
       inkscape:connector-curvature="0"
       transform="matrix(0.8,0,0,-0.8,347.57179,489.552)" /></g></svg>