<?xml version="1.0" encoding="UTF-8" standalone="no"?>
<!-- Created with Inkscape (http://www.inkscape.org/) -->

<svg
   xmlns:dc="http://purl.org/dc/elements/1.1/"
   xmlns:cc="http://creativecommons.org/ns#"
   xmlns:rdf="http://www.w3.org/1999/02/22-rdf-syntax-ns#"
   xmlns:svg="http://www.w3.org/2000/svg"
   xmlns="http://www.w3.org/2000/svg"
   xmlns:sodipodi="http://sodipodi.sourceforge.net/DTD/sodipodi-0.dtd"
   xmlns:inkscape="http://www.inkscape.org/namespaces/inkscape"
   id="svg2"
   version="1.1"
   inkscape:version="0.91 r13725"
   xml:space="preserve"
   width="180.53525"
   height="82.436752"
   viewBox="0 0 180.53524 82.436752"
   sodipodi:docname="mesquita.svg"><metadata
     id="metadata8"><rdf:RDF><cc:Work
         rdf:about=""><dc:format>image/svg+xml</dc:format><dc:type
           rdf:resource="http://purl.org/dc/dcmitype/StillImage" /><dc:title></dc:title></cc:Work></rdf:RDF></metadata><defs
     id="defs6"><clipPath
       clipPathUnits="userSpaceOnUse"
       id="clipPath20"><path
         d="m 0,595.276 841.89,0 L 841.89,0 0,0 0,595.276 Z"
         id="path22"
         inkscape:connector-curvature="0" /></clipPath><clipPath
       clipPathUnits="userSpaceOnUse"
       id="clipPath178"><path
         d="m 349.25,452.427 c 0,-7.625 17.625,-11.113 29.625,-11 l 0,0 C 441,442.011 492,460.552 492,460.552 l 0,0 c 0,0 -40.334,-11.042 -70,-11.874 l 0,0 c -5.005,-0.14 -49.125,-2.375 -49.125,11 l 0,0 c 0,15 46.75,29.874 46.75,29.874 l 0,0 c 0,0 -70.375,-18.749 -70.375,-37.125"
         id="path180"
         inkscape:connector-curvature="0" /></clipPath><linearGradient
       x1="0"
       y1="0"
       x2="1"
       y2="0"
       gradientUnits="userSpaceOnUse"
       gradientTransform="matrix(145.50221,0,0,-145.50221,343.65479,465.48926)"
       spreadMethod="pad"
       id="linearGradient186"><stop
         style="stop-opacity:1;stop-color:#fbaf5e"
         offset="0"
         id="stop188" /><stop
         style="stop-opacity:1;stop-color:#f89828"
         offset="0.67982352"
         id="stop190" /><stop
         style="stop-opacity:1;stop-color:#f89828"
         offset="1"
         id="stop192" /></linearGradient><clipPath
       clipPathUnits="userSpaceOnUse"
       id="clipPath200"><path
         d="m 479.031,459.218 c 0,-3.32 2.691,-6.012 6.012,-6.012 l 0,0 c 3.32,0 6.011,2.692 6.011,6.012 l 0,0 c 0,3.32 -2.691,6.012 -6.011,6.012 l 0,0 c -3.321,0 -6.012,-2.692 -6.012,-6.012"
         id="path202"
         inkscape:connector-curvature="0" /></clipPath><radialGradient
       fx="0"
       fy="0"
       cx="0"
       cy="0"
       r="1"
       gradientUnits="userSpaceOnUse"
       gradientTransform="matrix(3.9788513,0,0,-3.9788513,484.07227,460.80908)"
       spreadMethod="pad"
       id="radialGradient208"><stop
         style="stop-opacity:1;stop-color:#ffffff"
         offset="0"
         id="stop210" /><stop
         style="stop-opacity:1;stop-color:#231f20"
         offset="1"
         id="stop212" /></radialGradient><clipPath
       clipPathUnits="userSpaceOnUse"
       id="clipPath220"><path
         d="m 0,595.276 841.89,0 L 841.89,0 0,0 0,595.276 Z"
         id="path222"
         inkscape:connector-curvature="0" /></clipPath></defs><sodipodi:namedview
     pagecolor="#ffffff"
     bordercolor="#666666"
     borderopacity="1"
     objecttolerance="10"
     gridtolerance="10"
     guidetolerance="10"
     inkscape:pageopacity="0"
     inkscape:pageshadow="2"
     inkscape:window-width="1920"
     inkscape:window-height="1025"
     id="namedview4"
     showgrid="false"
     fit-margin-top="0"
     fit-margin-left="0"
     fit-margin-right="0"
     fit-margin-bottom="0"
     inkscape:zoom="7.1600134"
     inkscape:cx="66.022814"
     inkscape:cy="43.681476"
     inkscape:window-x="0"
     inkscape:window-y="0"
     inkscape:window-maximized="1"
     inkscape:current-layer="g10" /><g
     id="g10"
     inkscape:groupmode="layer"
     inkscape:label="logo_mesquita"
     transform="matrix(1.25,0,0,-1.25,-434.46475,611.94)"><g
       id="g3769"><g
         transform="translate(388.4609,429.6206)"
         id="g12"><path
           inkscape:connector-curvature="0"
           id="path14"
           style="fill:#231f20;fill-opacity:1;fill-rule:nonzero;stroke:none"
           d="m 0,0 0,-0.885 -1.914,0 0,-1.261 1.801,0 0,-0.885 -1.801,0 0,-1.441 1.988,0 0,-0.885 -3.068,0 0,5.357 L 0,0 Z" /></g><g
         id="g18"
         clip-path="url(#clipPath20)"><g
           id="g24"
           transform="translate(390.7856,424.9536)"><path
             d="M 0,0 C 0.638,0 0.743,0.548 0.743,1.989 0.743,3.421 0.638,3.977 0,3.977 -0.637,3.977 -0.743,3.421 -0.743,1.989 -0.743,0.548 -0.637,0 0,0 M 1.351,-1.351 0.713,-0.69 C 0.615,-0.728 0.503,-0.758 0.383,-0.772 0.27,-0.788 0.143,-0.795 0,-0.795 c -1.621,0 -1.823,1.155 -1.823,2.784 0,1.628 0.202,2.783 1.823,2.783 1.621,0 1.824,-1.155 1.824,-2.783 0,-0.908 -0.06,-1.667 -0.413,-2.177 L 1.988,-0.772 1.351,-1.351 Z"
             style="fill:#231f20;fill-opacity:1;fill-rule:nonzero;stroke:none"
             id="path26"
             inkscape:connector-curvature="0" /></g><g
           id="g28"
           transform="translate(394.2588,429.6206)"><path
             d="m 0,0 0,-3.736 c 0,-0.533 0.128,-0.931 0.63,-0.931 0.503,0 0.631,0.398 0.631,0.931 l 0,3.736 1.08,0 0,-3.736 c 0,-1.366 -0.833,-1.726 -1.711,-1.726 -0.877,0 -1.711,0.293 -1.711,1.726 L -1.081,0 0,0 Z"
             style="fill:#231f20;fill-opacity:1;fill-rule:nonzero;stroke:none"
             id="path30"
             inkscape:connector-curvature="0" /></g><path
           d="m 397.334,429.621 1.081,0 0,-5.357 -1.081,0 0,5.357 z"
           style="fill:#231f20;fill-opacity:1;fill-rule:nonzero;stroke:none"
           id="path32"
           inkscape:connector-curvature="0" /><g
           id="g34"
           transform="translate(400.2983,427.1968)"><path
             d="m 0,0 0.48,0 c 0.428,0 0.721,0.256 0.721,0.803 0,0.525 -0.21,0.825 -0.751,0.825 L 0,1.628 0,0 Z m -1.08,2.424 1.891,0 c 1.095,0 1.47,-0.803 1.47,-1.606 0,-1.11 -0.683,-1.613 -1.703,-1.613 l -0.578,0 0,-2.139 -1.08,0 0,5.358 z"
             style="fill:#231f20;fill-opacity:1;fill-rule:nonzero;stroke:none"
             id="path36"
             inkscape:connector-curvature="0" /></g><g
           id="g38"
           transform="translate(403.8916,426.2817)"><path
             d="M 0,0 1.051,0 0.533,2.409 0.518,2.409 0,0 Z m -0.142,3.339 1.335,0 1.418,-5.358 -1.125,0 -0.248,1.133 -1.426,0 -0.247,-1.133 -1.126,0 1.419,5.358 z"
             style="fill:#231f20;fill-opacity:1;fill-rule:nonzero;stroke:none"
             id="path40"
             inkscape:connector-curvature="0" /></g><g
           id="g42"
           transform="translate(406.8999,429.6206)"><path
             d="m 0,0 1.606,0 0.765,-3.782 0.015,0 0.773,3.782 1.598,0 0,-5.357 -0.99,0 0,4.276 -0.016,0 -0.952,-4.276 -0.841,0 -0.952,4.276 -0.016,0 0,-4.276 -0.99,0 L 0,0 Z"
             style="fill:#231f20;fill-opacity:1;fill-rule:nonzero;stroke:none"
             id="path44"
             inkscape:connector-curvature="0" /></g><path
           d="m 412.482,429.621 1.081,0 0,-5.357 -1.081,0 0,5.357 z"
           style="fill:#231f20;fill-opacity:1;fill-rule:nonzero;stroke:none"
           id="path46"
           inkscape:connector-curvature="0" /><g
           id="g48"
           transform="translate(417.3584,429.6206)"><path
             d="m 0,0 0,-0.885 -1.914,0 0,-1.261 1.801,0 0,-0.885 -1.801,0 0,-1.441 1.989,0 0,-0.885 -3.069,0 0,5.357 L 0,0 Z"
             style="fill:#231f20;fill-opacity:1;fill-rule:nonzero;stroke:none"
             id="path50"
             inkscape:connector-curvature="0" /></g><g
           id="g52"
           transform="translate(419.2188,429.6206)"><path
             d="m 0,0 1.306,-3.669 0.014,0 0,3.669 0.991,0 0,-5.357 -1.23,0 -1.321,3.752 -0.015,0 0,-3.752 -0.991,0 0,5.357 L 0,0 Z"
             style="fill:#231f20;fill-opacity:1;fill-rule:nonzero;stroke:none"
             id="path54"
             inkscape:connector-curvature="0" /></g><g
           id="g56"
           transform="translate(425.416,429.6206)"><path
             d="m 0,0 0,-0.885 -1.172,0 0,-4.472 -1.08,0 0,4.472 -1.17,0 0,0.885 L 0,0 Z"
             style="fill:#231f20;fill-opacity:1;fill-rule:nonzero;stroke:none"
             id="path58"
             inkscape:connector-curvature="0" /></g><g
           id="g60"
           transform="translate(427.5898,424.9536)"><path
             d="M 0,0 C 0.64,0 0.744,0.548 0.744,1.989 0.744,3.421 0.64,3.977 0,3.977 -0.637,3.977 -0.741,3.421 -0.741,1.989 -0.741,0.548 -0.637,0 0,0 m 0,4.772 c 1.621,0 1.824,-1.155 1.824,-2.783 0,-1.629 -0.203,-2.784 -1.824,-2.784 -1.62,0 -1.821,1.155 -1.821,2.784 0,1.628 0.201,2.783 1.821,2.783"
             style="fill:#231f20;fill-opacity:1;fill-rule:nonzero;stroke:none"
             id="path62"
             inkscape:connector-curvature="0" /></g><g
           id="g64"
           transform="translate(430.9219,425.9365)"><path
             d="m 0,0 0,-0.158 c 0,-0.503 0.142,-0.825 0.713,-0.825 0.329,0 0.644,0.21 0.644,0.66 0,0.489 -0.247,0.668 -0.96,0.916 -0.96,0.33 -1.403,0.727 -1.403,1.62 0,1.044 0.639,1.576 1.659,1.576 0.96,0 1.658,-0.413 1.658,-1.44 l 0,-0.151 -1.037,0 c 0,0.503 -0.171,0.796 -0.585,0.796 -0.487,0 -0.615,-0.307 -0.615,-0.623 0,-0.33 0.099,-0.533 0.556,-0.728 l 0.833,-0.36 c 0.81,-0.353 1.019,-0.765 1.019,-1.418 0,-1.133 -0.688,-1.643 -1.86,-1.643 -1.223,0 -1.703,0.57 -1.703,1.56 L -1.081,0 0,0 Z"
             style="fill:#231f20;fill-opacity:1;fill-rule:nonzero;stroke:none"
             id="path66"
             inkscape:connector-curvature="0" /></g><g
           id="g68"
           transform="translate(436.8789,425.0586)"><path
             d="M 0,0 0.479,0 C 1.229,0 1.38,0.473 1.38,1.928 1.38,3.144 1.282,3.767 0.456,3.767 L 0,3.767 0,0 Z m -1.081,4.562 1.769,0 c 1.501,0 1.773,-1.028 1.773,-2.604 0,-1.898 -0.405,-2.753 -1.839,-2.753 l -1.703,0 0,5.357 z"
             style="fill:#231f20;fill-opacity:1;fill-rule:nonzero;stroke:none"
             id="path70"
             inkscape:connector-curvature="0" /></g><g
           id="g72"
           transform="translate(443.0449,429.6206)"><path
             d="m 0,0 0,-0.885 -1.912,0 0,-1.261 1.801,0 0,-0.885 -1.801,0 0,-1.441 1.988,0 0,-0.885 -3.069,0 0,5.357 L 0,0 Z"
             style="fill:#231f20;fill-opacity:1;fill-rule:nonzero;stroke:none"
             id="path74"
             inkscape:connector-curvature="0" /></g><g
           id="g76"
           transform="translate(446.3311,425.9365)"><path
             d="m 0,0 0,-0.158 c 0,-0.503 0.142,-0.825 0.713,-0.825 0.329,0 0.644,0.21 0.644,0.66 0,0.489 -0.248,0.668 -0.96,0.916 -0.96,0.33 -1.403,0.727 -1.403,1.62 0,1.044 0.638,1.576 1.658,1.576 0.961,0 1.659,-0.413 1.659,-1.44 l 0,-0.151 -1.036,0 c 0,0.503 -0.173,0.796 -0.586,0.796 -0.488,0 -0.614,-0.307 -0.614,-0.623 0,-0.33 0.098,-0.533 0.555,-0.728 l 0.832,-0.36 c 0.811,-0.353 1.02,-0.765 1.02,-1.418 0,-1.133 -0.689,-1.643 -1.86,-1.643 -1.222,0 -1.702,0.57 -1.702,1.56 L -1.08,0 0,0 Z"
             style="fill:#231f20;fill-opacity:1;fill-rule:nonzero;stroke:none"
             id="path78"
             inkscape:connector-curvature="0" /></g><g
           id="g80"
           transform="translate(452.3477,429.6206)"><path
             d="m 0,0 0,-0.885 -1.913,0 0,-1.261 1.801,0 0,-0.885 -1.801,0 0,-1.441 1.988,0 0,-0.885 -3.069,0 0,5.357 L 0,0 Z"
             style="fill:#231f20;fill-opacity:1;fill-rule:nonzero;stroke:none"
             id="path82"
             inkscape:connector-curvature="0" /></g><g
           id="g84"
           transform="translate(455.3408,428.0298)"><path
             d="m 0,0 c 0,0.397 -0.181,0.9 -0.616,0.9 -0.525,0 -0.736,-0.54 -0.736,-1.875 0,-1.291 0.121,-2.101 0.744,-2.101 0.255,0 0.668,0.278 0.668,0.855 l 0,0.548 -0.712,0 0,0.796 1.748,0 0,-2.89 -0.796,0 0,0.496 -0.016,0 c -0.255,-0.42 -0.622,-0.601 -1.125,-0.601 -1.328,0 -1.591,0.991 -1.591,2.845 0,1.8 0.42,2.723 1.8,2.723 C 0.556,1.696 1.036,1.088 1.036,0 L 0,0 Z"
             style="fill:#231f20;fill-opacity:1;fill-rule:nonzero;stroke:none"
             id="path86"
             inkscape:connector-curvature="0" /></g><g
           id="g88"
           transform="translate(458.1465,429.6206)"><path
             d="m 0,0 0,-3.736 c 0,-0.533 0.128,-0.931 0.629,-0.931 0.504,0 0.632,0.398 0.632,0.931 l 0,3.736 1.08,0 0,-3.736 c 0,-1.366 -0.833,-1.726 -1.712,-1.726 -0.877,0 -1.71,0.293 -1.71,1.726 L -1.081,0 0,0 Z"
             style="fill:#231f20;fill-opacity:1;fill-rule:nonzero;stroke:none"
             id="path90"
             inkscape:connector-curvature="0" /></g><g
           id="g92"
           transform="translate(462.249,427.2798)"><path
             d="m 0,0 0.451,0 c 0.518,0 0.81,0.225 0.81,0.803 0,0.494 -0.262,0.742 -0.749,0.742 L 0,1.545 0,0 Z m -1.08,2.341 1.996,0 c 0.885,0 1.425,-0.466 1.425,-1.381 0,-0.713 -0.284,-1.193 -0.893,-1.32 l 0,-0.015 c 0.737,-0.098 0.849,-0.503 0.865,-1.636 0.007,-0.563 0.036,-0.855 0.239,-0.96 l 0,-0.046 -1.171,0 c -0.105,0.151 -0.128,0.353 -0.135,0.563 l -0.03,1.028 C 1.201,-1.005 1.013,-0.75 0.579,-0.75 l -0.579,0 0,-2.267 -1.08,0 0,5.358 z"
             style="fill:#231f20;fill-opacity:1;fill-rule:nonzero;stroke:none"
             id="path94"
             inkscape:connector-curvature="0" /></g><path
           d="m 465.394,429.621 1.081,0 0,-5.357 -1.081,0 0,5.357 z"
           style="fill:#231f20;fill-opacity:1;fill-rule:nonzero;stroke:none"
           id="path96"
           inkscape:connector-curvature="0" /><g
           id="g98"
           transform="translate(468.4082,425.0586)"><path
             d="m 0,0 0.48,0 c 0.751,0 0.901,0.473 0.901,1.928 0,1.216 -0.097,1.839 -0.922,1.839 L 0,3.767 0,0 Z m -1.08,4.562 1.771,0 c 1.501,0 1.77,-1.028 1.77,-2.604 0,-1.898 -0.404,-2.753 -1.837,-2.753 l -1.704,0 0,5.357 z"
             style="fill:#231f20;fill-opacity:1;fill-rule:nonzero;stroke:none"
             id="path100"
             inkscape:connector-curvature="0" /></g><g
           id="g102"
           transform="translate(472.5137,426.2817)"><path
             d="M 0,0 1.049,0 0.532,2.409 0.517,2.409 0,0 Z m -0.144,3.339 1.336,0 1.417,-5.358 -1.125,0 -0.247,1.133 -1.425,0 -0.248,-1.133 -1.125,0 1.417,5.358 z"
             style="fill:#231f20;fill-opacity:1;fill-rule:nonzero;stroke:none"
             id="path104"
             inkscape:connector-curvature="0" /></g><g
           id="g106"
           transform="translate(476.6318,425.0586)"><path
             d="m 0,0 0.48,0 c 0.749,0 0.901,0.473 0.901,1.928 0,1.216 -0.099,1.839 -0.924,1.839 L 0,3.767 0,0 Z m -1.08,4.562 1.769,0 c 1.5,0 1.772,-1.028 1.772,-2.604 0,-1.898 -0.406,-2.753 -1.84,-2.753 l -1.701,0 0,5.357 z"
             style="fill:#231f20;fill-opacity:1;fill-rule:nonzero;stroke:none"
             id="path108"
             inkscape:connector-curvature="0" /></g><g
           id="g110"
           transform="translate(482.4756,425.9365)"><path
             d="m 0,0 0,-0.158 c 0,-0.503 0.144,-0.825 0.712,-0.825 0.332,0 0.645,0.21 0.645,0.66 0,0.489 -0.247,0.668 -0.961,0.916 -0.959,0.33 -1.401,0.727 -1.401,1.62 0,1.044 0.637,1.576 1.657,1.576 0.96,0 1.659,-0.413 1.659,-1.44 l 0,-0.151 -1.035,0 c 0,0.503 -0.172,0.796 -0.586,0.796 -0.487,0 -0.615,-0.307 -0.615,-0.623 0,-0.33 0.097,-0.533 0.555,-0.728 l 0.834,-0.36 c 0.809,-0.353 1.02,-0.765 1.02,-1.418 0,-1.133 -0.691,-1.643 -1.861,-1.643 -1.224,0 -1.704,0.57 -1.704,1.56 L -1.081,0 0,0 Z"
             style="fill:#231f20;fill-opacity:1;fill-rule:nonzero;stroke:none"
             id="path112"
             inkscape:connector-curvature="0" /></g><path
           d="m 486.519,424.263 -0.989,0 0,1.171 0.989,0 0,-1.171 z"
           style="fill:#231f20;fill-opacity:1;fill-rule:nonzero;stroke:none"
           id="path114"
           inkscape:connector-curvature="0" /><g
           id="g116"
           transform="translate(488.4834,426.2817)"><path
             d="M 0,0 1.052,0 0.533,2.409 0.52,2.409 0,0 Z m -0.141,3.339 1.334,0 1.419,-5.358 -1.126,0 -0.247,1.133 -1.427,0 -0.247,-1.133 -1.126,0 1.42,5.358 z"
             style="fill:#231f20;fill-opacity:1;fill-rule:nonzero;stroke:none"
             id="path118"
             inkscape:connector-curvature="0" /></g><g
           id="g120"
           transform="translate(479.7793,470.2559)"><path
             d="M 0,0 C 0.164,0 0.309,0.01 0.309,0.186 0.309,0.34 0.177,0.36 0.053,0.36 l -0.246,0 0,-0.36 L 0,0 Z m -0.371,0.524 0.457,0 c 0.26,0 0.402,-0.112 0.402,-0.346 0,-0.21 -0.138,-0.308 -0.318,-0.327 l 0.338,-0.51 -0.181,0 -0.327,0.496 -0.193,0 0,-0.496 -0.178,0 0,1.183 z m 1.232,-0.587 c 0,0.468 -0.371,0.848 -0.832,0.848 -0.459,0 -0.828,-0.38 -0.828,-0.848 0,-0.467 0.369,-0.846 0.828,-0.846 0.461,0 0.832,0.379 0.832,0.846 M 0.029,0.948 c 0.561,0 1.012,-0.452 1.012,-1.011 0,-0.558 -0.451,-1.009 -1.012,-1.009 -0.556,0 -1.008,0.451 -1.008,1.009 0,0.559 0.452,1.011 1.008,1.011"
             style="fill:#231f20;fill-opacity:1;fill-rule:nonzero;stroke:none"
             id="path122"
             inkscape:connector-curvature="0" /></g><g
           id="g124"
           transform="translate(385.8477,470.0522)"><path
             d="m 0,0 2.431,0 1.838,-5.402 0.022,0 L 6.029,0 8.46,0 l 0,-7.855 -1.617,0 0,5.567 -0.022,0 -1.925,-5.567 -1.332,0 -1.925,5.512 -0.022,0 0,-5.512 L 0,-7.855 0,0 Z"
             style="fill:#231f20;fill-opacity:1;fill-rule:nonzero;stroke:none"
             id="path126"
             inkscape:connector-curvature="0" /></g><g
           id="g128"
           transform="translate(395.8247,470.0522)"><path
             d="m 0,0 5.875,0 0,-1.452 -4.148,0 0,-1.683 3.807,0 0,-1.343 -3.807,0 0,-1.925 4.236,0 0,-1.452 L 0,-7.855 0,0 Z"
             style="fill:#231f20;fill-opacity:1;fill-rule:nonzero;stroke:none"
             id="path130"
             inkscape:connector-curvature="0" /></g><g
           id="g132"
           transform="translate(404.1299,464.8047)"><path
             d="m 0,0 c 0,-1.045 0.814,-1.452 1.738,-1.452 0.605,0 1.529,0.176 1.529,0.979 0,0.847 -1.177,0.99 -2.332,1.298 -1.166,0.308 -2.343,0.759 -2.343,2.234 0,1.606 1.518,2.376 2.937,2.376 1.639,0 3.146,-0.715 3.146,-2.531 l -1.672,0 C 2.948,3.851 2.277,4.093 1.452,4.093 0.902,4.093 0.264,3.861 0.264,3.201 0.264,2.596 0.638,2.52 2.607,2.013 3.179,1.87 4.939,1.507 4.939,-0.275 c 0,-1.441 -1.133,-2.519 -3.267,-2.519 -1.738,0 -3.366,0.857 -3.344,2.794 L 0,0 Z"
             style="fill:#231f20;fill-opacity:1;fill-rule:nonzero;stroke:none"
             id="path134"
             inkscape:connector-curvature="0" /></g><g
           id="g136"
           transform="translate(414.3706,465.1016)"><path
             d="m 0,0 0.891,-0.814 c 0.286,0.396 0.484,0.99 0.484,1.804 0,1.375 -0.583,2.696 -2.134,2.696 -1.551,0 -2.134,-1.321 -2.134,-2.696 0,-1.309 0.583,-2.629 2.134,-2.629 0.253,0 0.572,0 0.693,0.11 L -0.803,-0.858 0,0 Z m 2.255,-3.642 -1.11,1.013 c -0.518,-0.297 -1.167,-0.462 -1.904,-0.462 -2.431,0 -3.862,1.815 -3.862,4.081 0,2.333 1.431,4.148 3.862,4.148 2.431,0 3.862,-1.815 3.862,-4.148 0,-1.133 -0.363,-2.145 -1.023,-2.893 L 3.059,-2.794 2.255,-3.642 Z"
             style="fill:#231f20;fill-opacity:1;fill-rule:nonzero;stroke:none"
             id="path138"
             inkscape:connector-curvature="0" /></g><g
           id="g140"
           transform="translate(425.3164,465.1675)"><path
             d="M 0,0 C 0,-2.123 -1.254,-3.157 -3.355,-3.157 -5.468,-3.157 -6.7,-2.134 -6.7,0 l 0,4.885 1.727,0 0,-4.885 c 0,-0.858 0.22,-1.705 1.618,-1.705 1.232,0 1.627,0.539 1.627,1.705 l 0,4.885 L 0,4.885 0,0 Z"
             style="fill:#231f20;fill-opacity:1;fill-rule:nonzero;stroke:none"
             id="path142"
             inkscape:connector-curvature="0" /></g><path
           d="m 426.801,470.052 1.727,0 0,-7.855 -1.727,0 0,7.855 z"
           style="fill:#231f20;fill-opacity:1;fill-rule:nonzero;stroke:none"
           id="path144"
           inkscape:connector-curvature="0" /><g
           id="g146"
           transform="translate(431.7832,468.6001)"><path
             d="m 0,0 -2.354,0 0,1.452 6.436,0 0,-1.452 -2.354,0 0,-6.403 L 0,-6.403 0,0 Z"
             style="fill:#231f20;fill-opacity:1;fill-rule:nonzero;stroke:none"
             id="path148"
             inkscape:connector-curvature="0" /></g><g
           id="g150"
           transform="translate(437.9326,465.2339)"><path
             d="m 0,0 2.036,0 -0.99,2.882 -0.023,0 L 0,0 Z m 0.165,4.818 1.772,0 2.937,-7.855 -1.793,0 -0.595,1.749 -2.937,0 -0.616,-1.749 -1.749,0 2.981,7.855 z"
             style="fill:#231f20;fill-opacity:1;fill-rule:nonzero;stroke:none"
             id="path152"
             inkscape:connector-curvature="0" /></g><g
           id="g154"
           transform="translate(446.5449,470.0522)"><path
             d="m 0,0 1.728,0 0,-3.014 3.179,0 0,3.014 1.728,0 0,-7.855 -1.728,0 0,3.389 -3.179,0 0,-3.389 L 0,-7.855 0,0 Z"
             style="fill:#231f20;fill-opacity:1;fill-rule:nonzero;stroke:none"
             id="path156"
             inkscape:connector-curvature="0" /></g><g
           id="g158"
           transform="translate(454.6963,470.0522)"><path
             d="m 0,0 1.716,0 3.279,-5.27 0.022,0 0,5.27 1.617,0 0,-7.855 -1.727,0 -3.267,5.259 -0.023,0 0,-5.259 L 0,-7.855 0,0 Z"
             style="fill:#231f20;fill-opacity:1;fill-rule:nonzero;stroke:none"
             id="path160"
             inkscape:connector-curvature="0" /></g><g
           id="g162"
           transform="translate(466.3672,463.4624)"><path
             d="M 0,0 C 1.552,0 2.135,1.32 2.135,2.629 2.135,4.004 1.552,5.325 0,5.325 -1.551,5.325 -2.134,4.004 -2.134,2.629 -2.134,1.32 -1.551,0 0,0 m 0,6.777 c 2.432,0 3.861,-1.815 3.861,-4.148 0,-2.266 -1.429,-4.081 -3.861,-4.081 -2.432,0 -3.861,1.815 -3.861,4.081 0,2.333 1.429,4.148 3.861,4.148"
             style="fill:#231f20;fill-opacity:1;fill-rule:nonzero;stroke:none"
             id="path164"
             inkscape:connector-curvature="0" /></g><g
           id="g166"
           transform="translate(472.582,464.8047)"><path
             d="m 0,0 c 0,-1.045 0.814,-1.452 1.738,-1.452 0.606,0 1.53,0.176 1.53,0.979 0,0.847 -1.178,0.99 -2.332,1.298 -1.166,0.308 -2.344,0.759 -2.344,2.234 0,1.606 1.518,2.376 2.937,2.376 1.64,0 3.147,-0.715 3.147,-2.531 l -1.672,0 C 2.949,3.851 2.277,4.093 1.453,4.093 0.902,4.093 0.264,3.861 0.264,3.201 0.264,2.596 0.639,2.52 2.607,2.013 3.18,1.87 4.939,1.507 4.939,-0.275 c 0,-1.441 -1.132,-2.519 -3.267,-2.519 -1.738,0 -3.365,0.857 -3.344,2.794 L 0,0 Z"
             style="fill:#231f20;fill-opacity:1;fill-rule:nonzero;stroke:none"
             id="path168"
             inkscape:connector-curvature="0" /></g><g
           id="g170"
           transform="translate(417.9468,486.4355)"><path
             d="m 0,0 c 0,0 -46.75,-14.875 -46.75,-29.875 0,-13.375 44.121,-11.141 49.125,-11 29.667,0.833 70,11.875 70,11.875 0,0 -51,-18.542 -113.125,-19.125 -12,-0.113 -29.625,3.375 -29.625,11 C -70.375,-18.75 0,0 0,0"
             style="fill:#939598;fill-opacity:1;fill-rule:nonzero;stroke:none"
             id="path172"
             inkscape:connector-curvature="0" /></g></g><g
         id="g176"
         clip-path="url(#clipPath178)"><g
           id="g182"><g
             id="g184"><path
               d="m 349.25,452.427 c 0,-7.625 17.625,-11.113 29.625,-11 l 0,0 C 441,442.011 492,460.552 492,460.552 l 0,0 c 0,0 -40.334,-11.042 -70,-11.874 l 0,0 c -5.005,-0.14 -49.125,-2.375 -49.125,11 l 0,0 c 0,15 46.75,29.874 46.75,29.874 l 0,0 c 0,0 -70.375,-18.749 -70.375,-37.125"
               style="fill:url(#linearGradient186);stroke:none"
               id="path194"
               inkscape:connector-curvature="0" /></g></g></g><g
         id="g196"><g
           clip-path="url(#clipPath200)"
           id="g198"><g
             id="g204"><g
               id="g206"><path
                 inkscape:connector-curvature="0"
                 id="path214"
                 style="fill:url(#radialGradient208);stroke:none"
                 d="m 479.031,459.218 c 0,-3.32 2.691,-6.012 6.012,-6.012 l 0,0 c 3.32,0 6.011,2.692 6.011,6.012 l 0,0 c 0,3.32 -2.691,6.012 -6.011,6.012 l 0,0 c -3.321,0 -6.012,-2.692 -6.012,-6.012" /></g></g></g></g><g
         id="g216"><g
           clip-path="url(#clipPath220)"
           id="g218"><g
             transform="translate(479.0313,459.2178)"
             id="g224"><path
               inkscape:connector-curvature="0"
               id="path226"
               style="fill:none;stroke:#231f20;stroke-width:0.1;stroke-linecap:butt;stroke-linejoin:miter;stroke-miterlimit:10;stroke-dasharray:none;stroke-opacity:1"
               d="m 0,0 c 0,3.32 2.691,6.012 6.012,6.012 3.32,0 6.011,-2.692 6.011,-6.012 0,-3.32 -2.691,-6.012 -6.011,-6.012 C 2.691,-6.012 0,-3.32 0,0 Z" /></g></g></g></g></g></svg>